<svg width="96" height="96" viewBox="0 0 96 96" fill="none" xmlns="http://www.w3.org/2000/svg">
<g clip-path="url(#clip0_825_156783)">
<rect width="96" height="96" rx="48" fill="white"/>
<path d="M29.0609 45.0456C31.402 40.9564 33.7739 36.8828 36.0956 32.782C36.5512 31.9782 36.9313 31.4302 37.2359 31.138C38.0227 30.3869 39.0115 30.0101 40.2024 30.0075C45.4473 29.9997 50.6918 29.998 55.9358 30.0023C56.9688 30.004 57.871 30.3433 58.6423 31.0201C59.4145 31.6981 59.8212 32.6459 60.3231 33.5184C62.5445 37.3854 64.7654 41.2529 66.9859 45.1208C67.493 46.0041 67.795 46.6623 67.8919 47.0953C68.1944 48.4398 67.8392 49.3914 67.112 50.6529C64.683 54.8639 62.2631 59.0797 59.8521 63.3003C59.4163 64.0635 59.043 64.592 58.7324 64.8859C57.9482 65.6266 56.9834 65.9974 55.838 65.9983C50.606 66 45.3727 66.0004 40.138 65.9996C39.0072 65.9987 38.0527 65.6283 37.2745 64.8885C36.9588 64.5885 36.5688 64.0323 36.1046 63.2199C33.7143 59.0331 31.3123 54.8527 28.8988 50.6789C28.1665 49.4122 27.7418 48.2648 28.1729 46.8179C28.3531 46.2098 28.7276 45.6277 29.0609 45.0456ZM56.7183 36.6884C56.0877 35.5837 54.9191 34.7644 53.6192 34.7553C52.0422 34.7449 48.5464 34.7445 43.1316 34.754C41.8497 34.7566 40.9797 34.881 40.0853 35.6771C39.7704 35.958 39.3568 36.5462 38.8446 37.4416C37.3397 40.0718 35.8361 42.7028 34.3337 45.3347C34.0961 45.7513 33.9605 46.0594 33.927 46.2591C33.7803 47.1472 34.5924 47.9795 35.4405 47.9795C38.7816 47.9804 42.123 47.9808 45.4649 47.9808C46.6515 47.9808 47.47 48.1351 48.3027 48.8741C48.6133 49.1499 49.032 49.7458 49.5588 50.662C51.0345 53.2256 52.5017 55.794 53.9603 58.3671C54.3631 59.0763 54.6527 59.6104 55.3863 59.7141C56.0383 59.8058 56.5424 59.5491 56.8985 58.944C58.6115 56.0321 60.2408 53.0735 61.9846 50.1823C62.5792 49.197 62.7603 48.2017 62.5278 47.1965C62.4299 46.7729 62.0662 46.0136 61.4364 44.9185C59.8603 42.1777 58.2876 39.4343 56.7183 36.6884Z" fill="#212121"/>
<path d="M53.6202 34.7553C54.9201 34.7644 56.0887 35.5838 56.7194 36.6884C58.2887 39.4345 59.8615 42.178 61.4376 44.9189C62.0674 46.014 62.4312 46.7733 62.529 47.1969C62.7616 48.2021 62.5805 49.1974 61.9859 50.1828C60.242 53.0741 58.6126 56.0328 56.8996 58.9448C56.5435 59.5499 56.0394 59.8066 55.3873 59.715C54.6537 59.6112 54.3641 59.0771 53.9613 58.3679C52.5027 55.7947 51.0355 53.2262 49.5597 50.6625C49.0328 49.7463 48.6141 49.1503 48.3035 48.8746C47.4708 48.1356 46.6523 47.9813 45.4656 47.9813C42.1237 47.9813 38.7821 47.9809 35.441 47.98C34.5928 47.98 33.7807 47.1476 33.9274 46.2595C33.9609 46.0598 34.0965 45.7517 34.3341 45.3351C35.8365 42.7031 37.3402 40.072 38.8452 37.4417C39.3574 36.5463 39.771 35.9581 40.0859 35.6771C40.9803 34.8811 41.8504 34.7566 43.1322 34.754C48.5472 34.7445 52.0432 34.7449 53.6202 34.7553Z" fill="white"/>
<path d="M48 2.4C48 1.07452 49.0752 -0.00625905 50.3991 0.0599867C56.7218 0.376381 62.9278 1.94094 68.6565 4.67208C75.1083 7.74795 80.7917 12.2258 85.2918 17.7788C89.7919 23.3318 92.9951 29.8196 94.6675 36.7687C96.1525 42.9389 96.3973 49.3344 95.3968 55.5855C95.1874 56.8943 93.9073 57.7223 92.6105 57.4477C91.3138 57.1731 90.4922 55.8999 90.6944 54.5899C91.5511 49.0394 91.3185 43.367 90.0008 37.8918C88.4956 31.6376 85.6127 25.7986 81.5626 20.8009C77.5125 15.8033 72.3974 11.7732 66.5909 9.00487C61.5074 6.58136 56.0064 5.17849 50.3988 4.86665C49.0754 4.79305 48 3.72549 48 2.4Z" fill="#F5814F"/>
</g>
<defs>
<clipPath id="clip0_825_156783">
<rect width="96" height="96" rx="48" fill="white"/>
</clipPath>
</defs>
</svg>
