<svg width="20" height="20" viewBox="0 0 20 20" fill="none" xmlns="http://www.w3.org/2000/svg">
<path d="M10 20C15.5228 20 20 15.5228 20 10C20 4.47715 15.5228 0 10 0C4.47715 0 0 4.47715 0 10C0 15.5228 4.47715 20 10 20Z" fill="#1F56A7"/>
<path d="M12.1875 7.8125V0.240621C10.7468 -0.0802069 9.25318 -0.0802069 7.8125 0.240621V7.8125H0.240621C-0.0802069 9.25318 -0.0802069 10.7468 0.240621 12.1875H7.8125V19.7594C9.25318 20.0802 10.7468 20.0802 12.1875 19.7594V12.1875H19.7594C20.0802 10.7468 20.0802 9.25318 19.7594 7.8125H12.1875Z" fill="#F1F0F0"/>
<path d="M11.2496 8.7501V0.0782231C10.4195 -0.0254233 9.57972 -0.0254233 8.74961 0.0782231V8.7501H0.0777348C-0.0259116 9.58021 -0.0259116 10.42 0.0777348 11.2501H8.74961V19.922C9.57972 20.0256 10.4195 20.0256 11.2496 19.922V11.2501H19.9215C20.0251 10.42 20.0251 9.58021 19.9215 8.7501H11.2496Z" fill="#D81F2A"/>
<path d="M0.978516 5.68096L4.81289 7.8126H7.8125V6.54346L2.40273 3.49658C1.83485 4.15954 1.35605 4.89389 0.978516 5.68096Z" fill="#F1F0F0"/>
<path d="M17.9437 3.92627L12.1875 7.13174V7.8126H16.2824L19.2402 6.17197C18.9074 5.37032 18.4715 4.61541 17.9437 3.92627Z" fill="#F1F0F0"/>
<path d="M0.759766 13.8281C1.09271 14.6295 1.52853 15.3842 2.05625 16.073L7.8125 12.8684V12.1875H3.71758L0.759766 13.8281Z" fill="#F1F0F0"/>
<path d="M19.0234 14.3191L15.1871 12.1875H12.1875V13.4566L17.5973 16.5035C18.1658 15.8407 18.6453 15.1063 19.0234 14.3191Z" fill="#F1F0F0"/>
<path d="M1.75977 4.33594C1.5612 4.62384 1.378 4.92204 1.21094 5.2293L5.83516 7.8125H7.8125V7.71367L1.75977 4.33594Z" fill="#D81F2A"/>
<path d="M18.2424 4.33594L12.0107 7.8125H14.165L18.7893 5.22891C18.6227 4.92191 18.4401 4.62384 18.2424 4.33594Z" fill="#D81F2A"/>
<path d="M1.75977 15.666L7.98945 12.1875H5.83516L1.21094 14.7711C1.37809 15.0788 1.56129 15.3775 1.75977 15.666Z" fill="#D81F2A"/>
<path d="M18.7893 14.7711L14.165 12.1875H12.0107L18.2424 15.666C18.4402 15.3775 18.6227 15.0788 18.7893 14.7711Z" fill="#D81F2A"/>
</svg>
