<svg width="0" height="0" class="hidden">
  <symbol fill="none" xmlns="http://www.w3.org/2000/svg" viewBox="0 0 24 24" id="account">
    <circle cx="12" cy="9" r="3" stroke="currentColor" stroke-width="2"></circle>
    <circle cx="12" cy="12" r="10" stroke="currentColor" stroke-width="2"></circle>
    <path d="M17.9691 20C17.81 17.1085 16.9247 15 11.9999 15C7.07521 15 6.18991 17.1085 6.03076 20" stroke="currentColor" stroke-width="2" stroke-linecap="round"></path>
  </symbol>
  <symbol fill="none" xmlns="http://www.w3.org/2000/svg" viewBox="0 0 24 24" id="arrow-up">
    <path fill-rule="evenodd" clip-rule="evenodd" d="M12.0001 2.58569L20.7072 11.2928L19.293 12.707L13.0001 6.41412V19.9999H11.0001V6.41412L4.70718 12.707L3.29297 11.2928L12.0001 2.58569Z" fill="currentColor"></path>
  </symbol>
  <symbol fill="none" xmlns="http://www.w3.org/2000/svg" viewBox="0 0 24 24" id="box">
    <path d="M15.5777 3.38197L17.5777 4.43152C19.7294 5.56066 20.8052 6.12523 21.4026 7.13974C22 8.15425 22 9.41667 22 11.9415V12.0585C22 14.5833 22 15.8458 21.4026 16.8603C20.8052 17.8748 19.7294 18.4393 17.5777 19.5685L15.5777 20.618C13.8221 21.5393 12.9443 22 12 22C11.0557 22 10.1779 21.5393 8.42229 20.618L6.42229 19.5685C4.27063 18.4393 3.19479 17.8748 2.5974 16.8603C2 15.8458 2 14.5833 2 12.0585V11.9415C2 9.41667 2 8.15425 2.5974 7.13974C3.19479 6.12523 4.27063 5.56066 6.42229 4.43152L8.42229 3.38197C10.1779 2.46066 11.0557 2 12 2C12.9443 2 13.8221 2.46066 15.5777 3.38197Z" stroke="currentColor" stroke-width="1.5" stroke-linecap="round"></path>
    <path d="M21 7.5L17 9.5M12 12L3 7.5M12 12V21.5M12 12C12 12 14.7426 10.6287 16.5 9.75C16.6953 9.65237 17 9.5 17 9.5M17 9.5V13M17 9.5L7.5 4.5" stroke="currentColor" stroke-width="1.5" stroke-linecap="round"></path>
  </symbol>
  <symbol fill="none" xmlns="http://www.w3.org/2000/svg" viewBox="0 0 24 24" id="calendar">
    <path d="M3 11.7694C3 8.28824 3 6.54767 4.05442 5.46622C5.10883 4.38477 6.80589 4.38477 10.2 4.38477H13.8C17.1941 4.38477 18.8912 4.38477 19.9456 5.46622C21 6.54767 21 8.28824 21 11.7694V13.6155C21 17.0967 21 18.8372 19.9456 19.9187C18.8912 21.0001 17.1941 21.0002 13.8 21.0002H10.2C6.80589 21.0002 5.10883 21.0001 4.05442 19.9187C3 18.8372 3 17.0967 3 13.6155V11.7694Z" stroke="currentColor" stroke-width="1.5"></path>
    <path d="M7.5 4.38462V3" stroke="currentColor" stroke-width="1.5" stroke-linecap="round"></path>
    <path d="M16.5 4.38462V3" stroke="currentColor" stroke-width="1.5" stroke-linecap="round"></path>
    <path d="M3.4502 9H20.5502" stroke="currentColor" stroke-width="1.5" stroke-linecap="round"></path>
    <path d="M17.4001 16.3847C17.4001 16.8945 16.9972 17.3077 16.5001 17.3077C16.003 17.3077 15.6001 16.8945 15.6001 16.3847C15.6001 15.8749 16.003 15.4616 16.5001 15.4616C16.9972 15.4616 17.4001 15.8749 17.4001 16.3847Z" fill="currentColor"></path>
    <path d="M17.4001 12.6924C17.4001 13.2022 16.9972 13.6154 16.5001 13.6154C16.003 13.6154 15.6001 13.2022 15.6001 12.6924C15.6001 12.1826 16.003 11.7693 16.5001 11.7693C16.9972 11.7693 17.4001 12.1826 17.4001 12.6924Z" fill="currentColor"></path>
    <path d="M12.9001 16.3847C12.9001 16.8945 12.4972 17.3077 12.0001 17.3077C11.503 17.3077 11.1001 16.8945 11.1001 16.3847C11.1001 15.8749 11.503 15.4616 12.0001 15.4616C12.4972 15.4616 12.9001 15.8749 12.9001 16.3847Z" fill="currentColor"></path>
    <path d="M12.9001 12.6924C12.9001 13.2022 12.4972 13.6154 12.0001 13.6154C11.503 13.6154 11.1001 13.2022 11.1001 12.6924C11.1001 12.1826 11.503 11.7693 12.0001 11.7693C12.4972 11.7693 12.9001 12.1826 12.9001 12.6924Z" fill="currentColor"></path>
    <path d="M8.4001 16.3847C8.4001 16.8945 7.99715 17.3077 7.5001 17.3077C7.00304 17.3077 6.6001 16.8945 6.6001 16.3847C6.6001 15.8749 7.00304 15.4616 7.5001 15.4616C7.99715 15.4616 8.4001 15.8749 8.4001 16.3847Z" fill="currentColor"></path>
    <path d="M8.4001 12.6924C8.4001 13.2022 7.99715 13.6154 7.5001 13.6154C7.00304 13.6154 6.6001 13.2022 6.6001 12.6924C6.6001 12.1826 7.00304 11.7693 7.5001 11.7693C7.99715 11.7693 8.4001 12.1826 8.4001 12.6924Z" fill="currentColor"></path>
  </symbol>
  <symbol fill="none" xmlns="http://www.w3.org/2000/svg" viewBox="0 0 24 24" id="card">
    <path d="M14.1 3.75H9.9C5.9402 3.75 3.9603 3.75 2.73015 5.0131C1.84443 5.92254 1.59644 7.23107 1.527 9.41016H22.473C22.4036 7.23107 22.1556 5.92254 21.2698 5.0131C20.0397 3.75 18.0598 3.75 14.1 3.75Z" fill="currentColor"></path>
    <path fill-rule="evenodd" clip-rule="evenodd" d="M14.1 21H9.9C5.9402 21 3.9603 21 2.73015 19.7369C1.5 18.4738 1.5 16.4409 1.5 12.375C1.5 11.8985 1.5 11.45 1.50198 11.0273H22.498C22.5 11.45 22.5 11.8985 22.5 12.375C22.5 16.4409 22.5 18.4738 21.2698 19.7369C20.0397 21 18.0598 21 14.1 21ZM16.247 12.6445C16.7014 12.6445 17.1181 12.6444 17.4571 12.6912C17.8303 12.7427 18.2248 12.864 18.5493 13.1971C18.8738 13.5303 18.9918 13.9354 19.042 14.3186C19.0876 14.6667 19.0876 15.0945 19.0875 15.5611V15.6576C19.0876 16.1242 19.0876 16.5521 19.042 16.9001C18.9918 17.2834 18.8738 17.6884 18.5493 18.0216C18.2248 18.3548 17.8303 18.476 17.4571 18.5275C17.1181 18.5743 16.7014 18.5743 16.247 18.5742L16.2 18.5742L16.153 18.5742C15.6986 18.5743 15.2819 18.5743 14.9429 18.5275C14.5697 18.476 14.1752 18.3548 13.8507 18.0216C13.5262 17.6884 13.4081 17.2834 13.358 16.9001C13.3124 16.5521 13.3124 16.1242 13.3125 15.6576L13.3125 15.6094L13.3125 15.5611C13.3124 15.0945 13.3124 14.6667 13.358 14.3186C13.4081 13.9354 13.5262 13.5303 13.8507 13.1971C14.1752 12.864 14.5697 12.7427 14.9429 12.6912C15.2819 12.6444 15.6986 12.6445 16.153 12.6445H16.247ZM4.9125 13.9922C4.9125 13.5456 5.26508 13.1836 5.7 13.1836H7.8C8.23492 13.1836 8.5875 13.5456 8.5875 13.9922C8.5875 14.4388 8.23492 14.8008 7.8 14.8008H5.7C5.26508 14.8008 4.9125 14.4388 4.9125 13.9922ZM4.9125 17.2266C4.9125 16.78 5.26508 16.418 5.7 16.418H9.9C10.3349 16.418 10.6875 16.78 10.6875 17.2266C10.6875 17.6731 10.3349 18.0352 9.9 18.0352H5.7C5.26508 18.0352 4.9125 17.6731 4.9125 17.2266Z" fill="currentColor"></path>
    <path d="M14.9644 14.3406L14.967 14.3392C14.969 14.3381 14.9725 14.3364 14.9778 14.3341C15.0006 14.3245 15.0514 14.308 15.1528 14.294C15.3741 14.2634 15.6828 14.2617 16.2 14.2617C16.7172 14.2617 17.0259 14.2634 17.2472 14.294C17.3486 14.308 17.3994 14.3245 17.4222 14.3341C17.4275 14.3364 17.431 14.3381 17.433 14.3392L17.4356 14.3407L17.437 14.3433C17.4381 14.3454 17.4398 14.349 17.442 14.3544C17.4514 14.3779 17.4674 14.43 17.4811 14.5341C17.5108 14.7613 17.5125 15.0783 17.5125 15.6094C17.5125 16.1405 17.5108 16.4574 17.4811 16.6846C17.4674 16.7887 17.4514 16.8409 17.442 16.8644C17.4398 16.8698 17.4381 16.8734 17.437 16.8754L17.4356 16.8781L17.433 16.8796C17.431 16.8806 17.4275 16.8824 17.4222 16.8846C17.3994 16.8943 17.3486 16.9108 17.2472 16.9248C17.0259 16.9553 16.7172 16.957 16.2 16.957C15.6828 16.957 15.3741 16.9553 15.1528 16.9248C15.0514 16.9108 15.0006 16.8943 14.9778 16.8846C14.9725 16.8824 14.969 16.8806 14.967 16.8796L14.9644 16.8781L14.963 16.8754C14.9619 16.8734 14.9602 16.8698 14.958 16.8644C14.9486 16.8409 14.9326 16.7887 14.9189 16.6846C14.8892 16.4574 14.8875 16.1405 14.8875 15.6094C14.8875 15.0783 14.8892 14.7613 14.9189 14.5341C14.9326 14.43 14.9486 14.3779 14.958 14.3544C14.9602 14.349 14.9619 14.3454 14.963 14.3433L14.9644 14.3406Z" fill="currentColor"></path>
  </symbol>
  <symbol fill="none" xmlns="http://www.w3.org/2000/svg" viewBox="0 0 24 24" id="cart">
    <path d="M3.74181 20.5545C4.94143 22 7.17414 22 11.6395 22H12.3607C16.8261 22 19.0589 22 20.2585 20.5545M3.74181 20.5545C2.54219 19.1091 2.95365 16.9146 3.77657 12.5257C4.36179 9.40452 4.65441 7.84393 5.7653 6.92196M3.74181 20.5545C3.74181 20.5545 3.74181 20.5545 3.74181 20.5545ZM20.2585 20.5545C21.4581 19.1091 21.0466 16.9146 20.2237 12.5257C19.6385 9.40452 19.3459 7.84393 18.235 6.92196M20.2585 20.5545C20.2585 20.5545 20.2585 20.5545 20.2585 20.5545ZM18.235 6.92196C17.1241 6 15.5363 6 12.3607 6H11.6395C8.46398 6 6.8762 6 5.7653 6.92196M18.235 6.92196C18.235 6.92196 18.235 6.92196 18.235 6.92196ZM5.7653 6.92196C5.7653 6.92196 5.7653 6.92196 5.7653 6.92196Z" stroke="currentColor" stroke-width="2"></path>
    <path d="M9 6V5C9 3.34315 10.3431 2 12 2C13.6569 2 15 3.34315 15 5V6" stroke="currentColor" stroke-width="2" stroke-linecap="round"></path>
  </symbol>
  <symbol fill="none" xmlns="http://www.w3.org/2000/svg" viewBox="0 0 24 24" id="chevron-down">
    <path d="M17 10L12 15L7 10" stroke="currentColor" stroke-width="1.5" stroke-linecap="round" stroke-linejoin="round"></path>
  </symbol>
  <symbol fill="none" xmlns="http://www.w3.org/2000/svg" viewBox="0 0 24 24" id="chevron-left">
    <path d="M14 17L9 12L14 7" stroke="currentColor" stroke-width="1.5" stroke-linecap="round" stroke-linejoin="round"></path>
  </symbol>
  <symbol fill="none" xmlns="http://www.w3.org/2000/svg" viewBox="0 0 24 24" id="chevron-right">
    <path d="M10 7L15 12L10 17" stroke="currentColor" stroke-width="1.5" stroke-linecap="round" stroke-linejoin="round"></path>
  </symbol>
  <symbol fill="none" xmlns="http://www.w3.org/2000/svg" viewBox="0 0 24 24" id="chevron-up">
    <path d="M7 14L12 9L17 14" stroke="currentColor" stroke-width="1.5" stroke-linecap="round" stroke-linejoin="round"></path>
  </symbol>
  <symbol fill="none" xmlns="http://www.w3.org/2000/svg" viewBox="0 0 24 24" id="circle-arrows">
    <path fill-rule="evenodd" clip-rule="evenodd" d="M3.46447 3.46447C2 4.92893 2 7.28595 2 12C2 16.714 2 19.0711 3.46447 20.5355C4.92893 22 7.28595 22 12 22C16.714 22 19.0711 22 20.5355 20.5355C22 19.0711 22 16.714 22 12C22 7.28595 22 4.92893 20.5355 3.46447C19.0711 2 16.714 2 12 2C7.28595 2 4.92893 2 3.46447 3.46447ZM5.46058 11.0833C5.83333 7.79988 8.62406 5.25 12.0096 5.25C13.9916 5.25 15.7702 6.12471 16.9775 7.50653C17.25 7.81846 17.2181 8.29226 16.9061 8.56479C16.5942 8.83733 16.1204 8.80539 15.8479 8.49347C14.9136 7.42409 13.541 6.75 12.0096 6.75C9.45215 6.75 7.33642 8.63219 6.97332 11.0833H7.33654C7.63998 11.0833 7.91353 11.2662 8.02955 11.5466C8.14558 11.8269 8.08122 12.1496 7.86651 12.364L6.69825 13.5307C6.40544 13.8231 5.93113 13.8231 5.63832 13.5307L4.47005 12.364C4.25534 12.1496 4.19099 11.8269 4.30701 11.5466C4.42304 11.2662 4.69658 11.0833 5.00002 11.0833H5.46058ZM17.3018 10.4693C17.5947 10.1769 18.069 10.1769 18.3618 10.4693L19.53 11.636C19.7448 11.8504 19.8091 12.1731 19.6931 12.4534C19.5771 12.7338 19.3035 12.9167 19.0001 12.9167H18.5395C18.1668 16.2001 15.376 18.75 11.9905 18.75C10.0085 18.75 8.22995 17.8753 7.02263 16.4935C6.7501 16.1815 6.78203 15.7077 7.09396 15.4352C7.40589 15.1627 7.87968 15.1946 8.15222 15.5065C9.08654 16.5759 10.4591 17.25 11.9905 17.25C14.548 17.25 16.6637 15.3678 17.0268 12.9167H16.6636C16.3601 12.9167 16.0866 12.7338 15.9705 12.4534C15.8545 12.1731 15.9189 11.8504 16.1336 11.636L17.3018 10.4693Z" fill="currentColor"></path>
  </symbol>
  <symbol fill="none" xmlns="http://www.w3.org/2000/svg" viewBox="0 0 24 24" id="clock">
    <path fill-rule="evenodd" clip-rule="evenodd" d="M5.07868 5.06891C8.87401 1.27893 15.0437 1.31923 18.8622 5.13778C22.6824 8.95797 22.7211 15.1313 18.9262 18.9262C15.1312 22.7211 8.95793 22.6824 5.13774 18.8622C2.87389 16.5984 1.93904 13.5099 2.34047 10.5812C2.39672 10.1708 2.775 9.88377 3.18537 9.94002C3.59575 9.99627 3.88282 10.3745 3.82657 10.7849C3.4866 13.2652 4.27782 15.881 6.1984 17.8016C9.44288 21.0461 14.6664 21.0646 17.8655 17.8655C21.0646 14.6664 21.046 9.44292 17.8015 6.19844C14.5587 2.95561 9.33889 2.93539 6.13935 6.12957L6.88705 6.13333C7.30126 6.13541 7.63535 6.47288 7.63327 6.88709C7.63119 7.3013 7.29372 7.63539 6.87951 7.63331L4.33396 7.62052C3.92269 7.61845 3.58981 7.28556 3.58774 6.8743L3.57495 4.32874C3.57286 3.91454 3.90696 3.57707 4.32117 3.57498C4.73538 3.5729 5.07285 3.907 5.07493 4.32121L5.07868 5.06891ZM11.9999 7.24992C12.4141 7.24992 12.7499 7.58571 12.7499 7.99992V11.6893L15.0302 13.9696C15.3231 14.2625 15.3231 14.7374 15.0302 15.0302C14.7373 15.3231 14.2624 15.3231 13.9696 15.0302L11.2499 12.3106V7.99992C11.2499 7.58571 11.5857 7.24992 11.9999 7.24992Z" fill="currentColor"></path>
  </symbol>
  <symbol fill="none" xmlns="http://www.w3.org/2000/svg" viewBox="0 0 24 24" id="cross">
    <path d="M4.5 18.6421L18.6421 4.49995L20.0563 5.91417L5.91421 20.0563L4.5 18.6421Z" fill="currentColor"></path>
    <path d="M5.67773 4.5L19.8199 18.6421L18.4057 20.0563L4.26352 5.91421L5.67773 4.5Z" fill="currentColor"></path>
  </symbol>
  <symbol fill="none" xmlns="http://www.w3.org/2000/svg" viewBox="0 0 24 24" id="edit">
    <path d="M5 20H19" stroke="currentColor" stroke-width="1.3" stroke-linecap="round"></path>
    <path d="M13.652 5.33033L14.3009 4.73713C15.3759 3.75429 17.1188 3.75429 18.1938 4.73713C19.2687 5.71998 19.2687 7.31349 18.1938 8.29633L17.5449 8.88953M13.652 5.33033C13.652 5.33033 13.7331 6.59088 14.9497 7.70313C16.1662 8.81538 17.5449 8.88953 17.5449 8.88953M13.652 5.33033L7.68718 10.7839C7.28316 11.1533 7.08116 11.338 6.90743 11.5416C6.70249 11.7818 6.52679 12.0418 6.38344 12.3168C6.26191 12.5499 6.17157 12.7977 5.99089 13.2933L5.22527 15.3933M17.5449 8.88953L11.5801 14.3431C11.1761 14.7125 10.9741 14.8972 10.7513 15.056C10.4886 15.2434 10.2043 15.404 9.90348 15.5351C9.64849 15.6462 9.37747 15.7288 8.83543 15.894L6.53854 16.594M6.53854 16.594L5.97709 16.7651C5.71035 16.8464 5.41626 16.7829 5.21744 16.6011C5.01862 16.4194 4.9492 16.1505 5.03811 15.9066L5.22527 15.3933M6.53854 16.594L5.22527 15.3933" stroke="currentColor" stroke-width="1.3"></path>
  </symbol>
  <symbol fill="none" xmlns="http://www.w3.org/2000/svg" viewBox="0 0 24 24" id="eye-close">
    <path d="M19.8526 9.11629L19.337 9.52446L19.8526 9.11629ZM19.8526 14.8837L19.337 14.4755L19.8526 14.8837ZM21 12H20.3424H21ZM4.1474 9.11629L4.66295 9.52446L4.1474 9.11629ZM4.1474 14.8837L4.66295 14.4755L4.1474 14.8837ZM4.66295 9.52446C6.12766 7.67442 8.51954 5.65756 12 5.65756V4.34244C7.95306 4.34244 5.22188 6.69981 3.63186 8.70812L4.66295 9.52446ZM12 5.65756C15.4805 5.65756 17.8723 7.67442 19.337 9.52446L20.3681 8.70812C18.7781 6.69981 16.0469 4.34244 12 4.34244V5.65756ZM19.337 14.4755C17.8723 16.3256 15.4805 18.3424 12 18.3424V19.6576C16.0469 19.6576 18.7781 17.3002 20.3681 15.2919L19.337 14.4755ZM12 18.3424C8.51954 18.3424 6.12766 16.3256 4.66295 14.4755L3.63186 15.2919C5.22188 17.3002 7.95306 19.6576 12 19.6576V18.3424ZM19.337 9.52446C19.7321 10.0234 19.9629 10.3209 20.1145 10.6546C20.2556 10.9652 20.3424 11.3449 20.3424 12H21.6576C21.6576 11.2206 21.5531 10.6416 21.3118 10.1105C21.081 9.60249 20.7381 9.17537 20.3681 8.70812L19.337 9.52446ZM20.3681 15.2919C20.7381 14.8246 21.081 14.3975 21.3118 13.8895C21.5531 13.3584 21.6576 12.7794 21.6576 12H20.3424C20.3424 12.6551 20.2556 13.0348 20.1145 13.3454C19.9629 13.6791 19.7321 13.9766 19.337 14.4755L20.3681 15.2919ZM3.63186 8.70812C3.26193 9.17537 2.91904 9.60249 2.68819 10.1105C2.44688 10.6416 2.34244 11.2206 2.34244 12H3.65756C3.65756 11.3449 3.74435 10.9652 3.88551 10.6546C4.03713 10.3209 4.26794 10.0234 4.66295 9.52446L3.63186 8.70812ZM4.66295 14.4755C4.26794 13.9766 4.03713 13.6791 3.88551 13.3454C3.74435 13.0348 3.65756 12.6551 3.65756 12H2.34244C2.34244 12.7794 2.44688 13.3584 2.68819 13.8895C2.91904 14.3975 3.26193 14.8246 3.63186 15.2919L4.66295 14.4755ZM14.0424 12C14.0424 13.0693 13.1456 13.9675 12 13.9675V15.2826C13.8367 15.2826 15.3575 13.8303 15.3575 12H14.0424ZM12 13.9675C10.8544 13.9675 9.95753 13.0693 9.95753 12H8.6424C8.6424 13.8303 10.1632 15.2826 12 15.2826V13.9675ZM9.95753 12C9.95753 10.9308 10.8544 10.0326 12 10.0326V8.71747C10.1632 8.71747 8.6424 10.1698 8.6424 12H9.95753ZM12 10.0326C13.1456 10.0326 14.0424 10.9308 14.0424 12H15.3575C15.3575 10.1698 13.8367 8.71747 12 8.71747V10.0326Z" fill="currentColor"></path>
    <path d="M2 5L22 19" stroke="currentColor" stroke-width="1.31513" stroke-linecap="round"></path>
  </symbol>
  <symbol fill="none" xmlns="http://www.w3.org/2000/svg" viewBox="0 0 24 24" id="eye-open">
    <path d="M3.27489 15.2957C2.42496 14.1915 2 13.6394 2 12C2 10.3606 2.42496 9.80853 3.27489 8.70433C4.97196 6.49956 7.81811 4 12 4C16.1819 4 19.028 6.49956 20.7251 8.70433C21.575 9.80853 22 10.3606 22 12C22 13.6394 21.575 14.1915 20.7251 15.2957C19.028 17.5004 16.1819 20 12 20C7.81811 20 4.97196 17.5004 3.27489 15.2957Z" stroke="currentColor" stroke-width="1.5"></path>
    <path d="M15 12C15 13.6569 13.6569 15 12 15C10.3431 15 9 13.6569 9 12C9 10.3431 10.3431 9 12 9C13.6569 9 15 10.3431 15 12Z" stroke="currentColor" stroke-width="1.5"></path>
  </symbol>
  <symbol fill="none" xmlns="http://www.w3.org/2000/svg" viewBox="0 0 24 24" id="grid">
    <path d="M4 7.5C4 5.85008 4 5.02513 4.51256 4.51256C5.02513 4 5.85008 4 7.5 4C9.14992 4 9.97487 4 10.4874 4.51256C11 5.02513 11 5.85008 11 7.5C11 9.14992 11 9.97487 10.4874 10.4874C9.97487 11 9.14992 11 7.5 11C5.85008 11 5.02513 11 4.51256 10.4874C4 9.97487 4 9.14992 4 7.5Z" fill="currentColor"></path>
    <path d="M13 16.5C13 14.8501 13 14.0251 13.5126 13.5126C14.0251 13 14.8501 13 16.5 13C18.1499 13 18.9749 13 19.4874 13.5126C20 14.0251 20 14.8501 20 16.5C20 18.1499 20 18.9749 19.4874 19.4874C18.9749 20 18.1499 20 16.5 20C14.8501 20 14.0251 20 13.5126 19.4874C13 18.9749 13 18.1499 13 16.5Z" fill="currentColor"></path>
    <path d="M4 16.5C4 14.8501 4 14.0251 4.51256 13.5126C5.02513 13 5.85008 13 7.5 13C9.14992 13 9.97487 13 10.4874 13.5126C11 14.0251 11 14.8501 11 16.5C11 18.1499 11 18.9749 10.4874 19.4874C9.97487 20 9.14992 20 7.5 20C5.85008 20 5.02513 20 4.51256 19.4874C4 18.9749 4 18.1499 4 16.5Z" fill="currentColor"></path>
    <path d="M13 7.5C13 5.85008 13 5.02513 13.5126 4.51256C14.0251 4 14.8501 4 16.5 4C18.1499 4 18.9749 4 19.4874 4.51256C20 5.02513 20 5.85008 20 7.5C20 9.14992 20 9.97487 19.4874 10.4874C18.9749 11 18.1499 11 16.5 11C14.8501 11 14.0251 11 13.5126 10.4874C13 9.97487 13 9.14992 13 7.5Z" fill="currentColor"></path>
  </symbol>
  <symbol fill="none" xmlns="http://www.w3.org/2000/svg" viewBox="0 0 24 24" id="headphones">
    <path d="M2 12.124C2 6.53269 6.47713 2 11.9999 2C17.5228 2 21.9999 6.53269 21.9999 12.124L21.9999 17.3675C22.0002 18.1844 22.0004 18.7446 21.8568 19.2364C21.576 20.1982 20.9046 20.9937 20.01 21.4245C19.5525 21.6449 19.0059 21.732 18.2088 21.8591L18.0789 21.8799C17.7954 21.9252 17.5532 21.9639 17.3522 21.9839C17.1431 22.0047 16.9299 22.0111 16.7118 21.9676C15.9942 21.8245 15.4024 21.3126 15.1508 20.6172C15.0744 20.4059 15.0474 20.1916 15.035 19.9793C15.0232 19.7753 15.0232 19.527 15.0232 19.2365L15.0231 15.0641C15.0226 14.6386 15.0222 14.2725 15.1195 13.959C15.3422 13.2416 15.9238 12.6975 16.6477 12.5292C16.9641 12.4556 17.3246 12.4849 17.7435 12.5189L17.8367 12.5264L17.9465 12.5352C18.7302 12.5975 19.2664 12.6402 19.7216 12.8106C20.0415 12.9304 20.3381 13.0953 20.6046 13.2976V12.124C20.6046 7.31288 16.7521 3.41266 11.9999 3.41266C7.24776 3.41266 3.39534 7.31288 3.39534 12.124V13.2976C3.66176 13.0953 3.95843 12.9304 4.27829 12.8106C4.73345 12.6402 5.26965 12.5975 6.05335 12.5352L6.16318 12.5264L6.25641 12.5189C6.67534 12.4849 7.03581 12.4556 7.35224 12.5292C8.07612 12.6975 8.65766 13.2416 8.88039 13.959C8.97774 14.2725 8.9773 14.6386 8.97678 15.0641L8.97671 19.2365C8.97671 19.527 8.97672 19.7753 8.96487 19.9793C8.95254 20.1916 8.9255 20.4059 8.84906 20.6172C8.59754 21.3126 8.00574 21.8245 7.28812 21.9676C7.07001 22.0111 6.85675 22.0047 6.64768 21.9839C6.44671 21.9639 6.20449 21.9252 5.92102 21.8799L5.79106 21.8591C4.99399 21.732 4.44737 21.6449 3.98991 21.4245C3.09534 20.9937 2.42388 20.1982 2.14308 19.2364C2.02467 18.8309 2.00404 18.3788 2.0006 17.7747L2 17.5803V12.124Z" fill="currentColor"></path>
    <path fill-rule="evenodd" clip-rule="evenodd" d="M11.9999 5.75C12.4142 5.75 12.7499 6.08579 12.7499 6.5L12.7499 11.5C12.7499 11.9142 12.4142 12.25 11.9999 12.25C11.5857 12.25 11.2499 11.9142 11.2499 11.5L11.2499 6.5C11.2499 6.08579 11.5857 5.75 11.9999 5.75Z" fill="currentColor"></path>
    <path fill-rule="evenodd" clip-rule="evenodd" d="M14.9999 7.25C15.4142 7.25 15.7499 7.58579 15.7499 8V10C15.7499 10.4142 15.4142 10.75 14.9999 10.75C14.5857 10.75 14.2499 10.4142 14.2499 10V8C14.2499 7.58579 14.5857 7.25 14.9999 7.25Z" fill="currentColor"></path>
    <path fill-rule="evenodd" clip-rule="evenodd" d="M8.99995 7.25C9.41416 7.25 9.74995 7.58579 9.74995 8L9.74995 10C9.74995 10.4142 9.41416 10.75 8.99995 10.75C8.58573 10.75 8.24995 10.4142 8.24995 10L8.24995 8C8.24995 7.58579 8.58573 7.25 8.99995 7.25Z" fill="currentColor"></path>
  </symbol>
  <symbol fill="none" xmlns="http://www.w3.org/2000/svg" viewBox="0 0 24 24" id="like">
    <path d="M8.61365 18.523L9.22435 17.7312L8.61365 18.523ZM11.5 6.05933L10.7871 6.76064C10.9751 6.95172 11.232 7.05933 11.5 7.05933C11.768 7.05933 12.0249 6.95172 12.2129 6.76064L11.5 6.05933ZM14.3864 18.523L14.9971 19.3149L14.3864 18.523ZM9.22435 17.7312C7.76691 16.6072 6.22509 15.5461 4.99906 14.1954C3.8074 12.8827 3 11.3796 3 9.43912H1C1 12.0183 2.10183 13.9794 3.51819 15.5397C4.90018 17.0621 6.66519 18.2832 8.00294 19.3149L9.22435 17.7312ZM3 9.43912C3 7.56566 4.08174 5.99669 5.55517 5.33777C6.97118 4.70453 8.90776 4.85034 10.7871 6.76064L12.2129 5.35801C9.81739 2.92314 7.00397 2.49899 4.73869 3.51202C2.53084 4.49937 1 6.79289 1 9.43912H3ZM8.00294 19.3149C8.48703 19.6883 9.02484 20.1009 9.57415 20.4149C10.1236 20.7291 10.7766 21 11.5 21V19C11.2734 19 10.9764 18.9128 10.5668 18.6786C10.157 18.4444 9.72661 18.1185 9.22435 17.7312L8.00294 19.3149ZM14.9971 19.3149C16.3348 18.2832 18.0998 17.0621 19.4818 15.5397C20.8982 13.9794 22 12.0183 22 9.43912H20C20 11.3796 19.1926 12.8827 18.0009 14.1954C16.7749 15.5461 15.2331 16.6072 13.7756 17.7312L14.9971 19.3149ZM22 9.43912C22 6.79289 20.4692 4.49937 18.2613 3.51202C15.996 2.49899 13.1826 2.92314 10.7871 5.35801L12.2129 6.76064C14.0922 4.85034 16.0288 4.70453 17.4448 5.33777C18.9183 5.99669 20 7.56566 20 9.43912H22ZM13.7756 17.7312C13.2734 18.1185 12.843 18.4444 12.4332 18.6786C12.0236 18.9128 11.7266 19 11.5 19V21C12.2234 21 12.8764 20.7291 13.4259 20.4149C13.9752 20.1009 14.513 19.6883 14.9971 19.3149L13.7756 17.7312Z" fill="currentColor"></path>
  </symbol>
  <symbol fill="none" xmlns="http://www.w3.org/2000/svg" viewBox="0 0 24 24" id="list">
    <rect x="2" y="11" width="20" height="3" rx="1" fill="currentColor"></rect>
    <rect x="2" y="17" width="20" height="3" rx="1" fill="currentColor"></rect>
    <rect x="2" y="5" width="20" height="3" rx="1" fill="currentColor"></rect>
  </symbol>
  <symbol fill="none" xmlns="http://www.w3.org/2000/svg" viewBox="0 0 24 24" id="lock">
    <path d="M4 15.079C4 12.7592 4 11.5993 4.70294 10.8786C5.40589 10.158 6.53726 10.158 8.8 10.158H15.2C17.4627 10.158 18.5941 10.158 19.2971 10.8786C20 11.5993 20 12.7592 20 15.079C20 17.3988 20 18.5587 19.2971 19.2794C18.5941 20.0001 17.4627 20.0001 15.2 20.0001H8.8C6.53726 20.0001 5.40589 20.0001 4.70294 19.2794C4 18.5587 4 17.3988 4 15.079Z" stroke="currentColor" stroke-width="1.5"></path>
    <path d="M12 12.842V16.421" stroke="currentColor" stroke-width="1.5" stroke-linecap="round"></path>
    <path d="M7.55566 10.1579V8.36842C7.55566 5.40352 9.54551 3 12.0001 3C14.4547 3 16.4446 5.40352 16.4446 8.36842V10.1579" stroke="currentColor" stroke-width="1.5" stroke-linecap="round"></path>
  </symbol>
  <symbol fill="none" xmlns="http://www.w3.org/2000/svg" viewBox="0 0 24 24" id="minus">
    <path d="M8 12H16.4853" stroke="currentColor" stroke-width="1.3" stroke-linecap="round" stroke-linejoin="round"></path>
  </symbol>
  <symbol fill="none" xmlns="http://www.w3.org/2000/svg" viewBox="0 0 24 24" id="plus">
    <path d="M12.2426 7.75736V16.2426" stroke="currentColor" stroke-width="1.3" stroke-linecap="round" stroke-linejoin="round"></path>
    <path d="M8 12H16.4853" stroke="currentColor" stroke-width="1.3" stroke-linecap="round" stroke-linejoin="round"></path>
  </symbol>
  <symbol fill="none" xmlns="http://www.w3.org/2000/svg" viewBox="0 0 24 24" id="search">
    <path d="M11.3636 4C9.90721 4 8.48354 4.43187 7.2726 5.24099C6.06167 6.05011 5.11786 7.20015 4.56052 8.54567C4.00319 9.89119 3.85737 11.3718 4.14149 12.8002C4.42562 14.2286 5.12693 15.5406 6.15675 16.5704C7.18657 17.6003 8.49863 18.3016 9.92703 18.5857C11.3554 18.8698 12.836 18.724 14.1815 18.1667C15.527 17.6093 16.6771 16.6655 17.4862 15.4546C18.2953 14.2436 18.7272 12.82 18.7272 11.3636C18.7271 9.41068 17.9512 7.5378 16.5703 6.15688C15.1894 4.77597 13.3165 4.00012 11.3636 4V4Z" stroke="currentColor" stroke-width="2" stroke-miterlimit="10"></path>
    <path d="M17 16.9985L20 19.9985" stroke="currentColor" stroke-width="2" stroke-miterlimit="10" stroke-linecap="round"></path>
  </symbol>
  <symbol fill="none" xmlns="http://www.w3.org/2000/svg" viewBox="0 0 24 24" id="settings">
    <path d="M9.51163 7.66087C9.51163 8.0233 9.21489 8.31712 8.84884 8.31712L2.66279 8.31712C2.29674 8.31712 2 8.0233 2 7.66087C2 7.29843 2.29674 7.00462 2.66279 7.00462L8.84884 7.00462C9.21489 7.00462 9.51163 7.29843 9.51163 7.66087Z" fill="currentColor"></path>
    <path d="M11.9419 16.375C11.9419 17.8247 10.7549 19 9.2907 19C7.8265 19 6.63953 17.8247 6.63953 16.375C6.63953 14.9253 7.8265 13.75 9.2907 13.75C10.7549 13.75 11.9419 14.9253 11.9419 16.375Z" fill="currentColor"></path>
    <path d="M11.0581 7.625C11.0581 9.07475 12.2451 10.25 13.7093 10.25C15.1735 10.25 16.3605 9.07475 16.3605 7.625C16.3605 6.17525 15.1735 5 13.7093 5C12.2451 5 11.0581 6.17525 11.0581 7.625Z" fill="currentColor"></path>
    <path d="M14.1512 17.0671C13.7851 17.0671 13.4884 16.7733 13.4884 16.4109C13.4884 16.0484 13.7851 15.7546 14.1512 15.7546L20.3372 15.7546C20.7033 15.7546 21 16.0484 21 16.4109C21 16.7733 20.7033 17.0671 20.3372 17.0671H14.1512Z" fill="currentColor"></path>
    <path d="M21 7.66087C21 8.0233 20.7033 8.31712 20.3372 8.31712H18.5698C18.2037 8.31712 17.907 8.0233 17.907 7.66087C17.907 7.29843 18.2037 7.00462 18.5698 7.00462H20.3372C20.7033 7.00462 21 7.29843 21 7.66087Z" fill="currentColor"></path>
    <path d="M2.66279 17.0671C2.29674 17.0671 2 16.7733 2 16.4109C2 16.0484 2.29674 15.7546 2.66279 15.7546H4.43023C4.79628 15.7546 5.09302 16.0484 5.09302 16.4109C5.09302 16.7733 4.79628 17.0671 4.43023 17.0671H2.66279Z" fill="currentColor"></path>
  </symbol>
  <symbol fill="none" xmlns="http://www.w3.org/2000/svg" viewBox="0 0 24 24" id="tag">
    <path fill-rule="evenodd" clip-rule="evenodd" d="M2.12264 12.816C2.41018 13.8186 3.18295 14.5914 4.72848 16.1369L6.55812 17.9665C9.24711 20.6555 10.5916 22 12.2623 22C13.933 22 15.2775 20.6555 17.9665 17.9665C20.6555 15.2775 22 13.933 22 12.2623C22 10.5916 20.6555 9.24711 17.9665 6.55812L16.1369 4.72848C14.5914 3.18295 13.8186 2.41018 12.816 2.12264C11.8134 1.83509 10.7485 2.08083 8.61875 2.57231L7.39057 2.85574C5.5988 3.26922 4.70292 3.47597 4.08944 4.08944C3.47597 4.70292 3.26922 5.59881 2.85574 7.39057L2.57231 8.61875C2.08083 10.7485 1.83509 11.8134 2.12264 12.816ZM10.1234 7.27098C10.911 8.05856 10.911 9.33549 10.1234 10.1231C9.33581 10.9107 8.05888 10.9107 7.27129 10.1231C6.48371 9.33549 6.48371 8.05856 7.27129 7.27098C8.05888 6.48339 9.33581 6.48339 10.1234 7.27098ZM19.0511 12.0511L12.0721 19.0303C11.7792 19.3232 11.3043 19.3232 11.0114 19.0303C10.7185 18.7375 10.7185 18.2626 11.0114 17.9697L17.9904 10.9904C18.2833 10.6975 18.7582 10.6975 19.0511 10.9904C19.344 11.2833 19.344 11.7582 19.0511 12.0511Z" fill="currentColor"></path>
  </symbol>
  <symbol xmlns="http://www.w3.org/2000/svg" version="1.1" xmlns:xlink="http://www.w3.org/1999/xlink" x="0" y="0" xml:space="preserve" viewBox="0 0 180 180" id="ukraine">
    <g fill="none" fill-rule="evenodd">
      <path fill="#2b98f0" d="M180 90c0-49.706-40.294-90-90-90S0 40.294 0 90z" opacity="1" data-original="#2b98f0"></path>
      <path fill="#fee94e" d="M180 90c0 49.706-40.294 90-90 90S0 139.706 0 90z" opacity="1" data-original="#fee94e"></path>
    </g>
  </symbol>
  <symbol fill="none" xmlns="http://www.w3.org/2000/svg" viewBox="0 0 20 20" id="logout">
    <path d="M12.4985 14.1673C12.4884 15.9798 12.4081 16.9614 11.7678 17.6018C11.0355 18.334 9.85701 18.334 7.49998 18.334L6.66665 18.334C4.30963 18.334 3.13112 18.334 2.39888 17.6018C1.66665 16.8695 1.66665 15.691 1.66665 13.334L1.66665 6.66732C1.66665 4.3103 1.66665 3.13178 2.39888 2.39955C3.13112 1.66732 4.30963 1.66732 6.66665 1.66732L7.49998 1.66732C9.85701 1.66732 11.0355 1.66732 11.7678 2.39955C12.4081 3.03987 12.4884 4.02146 12.4985 5.83398" stroke="currentColor" stroke-width="1.5" stroke-linecap="round"></path>
    <path d="M7.5 10L18.3333 10M18.3333 10L15.4167 12.5M18.3333 10L15.4167 7.5" stroke="currentColor" stroke-width="1.3" stroke-linecap="round" stroke-linejoin="round"></path>
  </symbol>
  <symbol fill="none" xmlns="http://www.w3.org/2000/svg" viewBox="0 0 32 32" id="star">
    <path d="M24.6248 29.9999C24.4143 30.0008 24.2089 29.9351 24.0379 29.8124L15.9998 23.9849L7.96169 29.8124C7.78996 29.937 7.58307 30.0037 7.37092 30.0029C7.15878 30.0022 6.95238 29.9339 6.78156 29.8081C6.61074 29.6823 6.48435 29.5055 6.42067 29.3031C6.35699 29.1008 6.35932 28.8834 6.42731 28.6824L9.56231 19.3968L1.43731 13.825C1.26132 13.7044 1.12849 13.5307 1.05823 13.3293C0.987975 13.1279 0.98397 12.9093 1.0468 12.7054C1.10964 12.5016 1.23602 12.3231 1.40748 12.1962C1.57894 12.0693 1.78649 12.0005 1.99981 12H12.0236L15.0486 2.6906C15.1137 2.48962 15.2409 2.31443 15.4118 2.19019C15.5827 2.06595 15.7885 1.99902 15.9998 1.99902C16.2111 1.99902 16.417 2.06595 16.5878 2.19019C16.7587 2.31443 16.8859 2.48962 16.9511 2.6906L19.9761 12.0031H29.9998C30.2134 12.003 30.4214 12.0713 30.5934 12.1979C30.7653 12.3246 30.8922 12.503 30.9555 12.707C31.0187 12.9111 31.0149 13.13 30.9448 13.3317C30.8746 13.5334 30.7416 13.7074 30.5654 13.8281L22.4373 19.3968L25.5704 28.6799C25.6212 28.8302 25.6355 28.9904 25.6121 29.1473C25.5887 29.3042 25.5283 29.4533 25.4359 29.5823C25.3436 29.7113 25.2218 29.8164 25.0808 29.889C24.9397 29.9616 24.7834 29.9996 24.6248 29.9999Z" fill="currentColor"></path>
  </symbol>
  <symbol fill="none" xmlns="http://www.w3.org/2000/svg" viewBox="0 0 168 32" id="logo">
    <path fill-rule="evenodd" clip-rule="evenodd" d="M5.96461 25.534V20.4319C7.2093 23.8044 10.5279 26.1731 14.3619 25.9755C18.7371 25.7933 22.273 22.2175 22.4541 17.8477C22.5982 14.67 20.9402 11.8217 18.4216 10.2682C18.273 10.1651 18.1141 10.0984 17.9539 10.0578C18.0979 9.90594 18.2151 9.72577 18.3003 9.52265C18.5693 8.90624 18.6806 8.25936 18.6806 7.59201C18.6806 4.38483 15.6552 1.92401 12.0606 1.92401H1.22461V25.534H5.96461ZM10.2146 16.986H5.96461V13.294H13.9646C15.9522 13.294 17.6806 15.1273 17.6806 17.486C17.6806 19.8812 15.95 21.712 13.9646 21.712C11.9428 21.712 10.2146 19.8785 10.2146 17.486V16.986ZM13.9066 7.59201C13.9066 8.27659 13.18 8.99601 12.0606 8.99601H5.96461V6.22201H12.0606C13.1863 6.22201 13.9066 6.9465 13.9066 7.59201Z" fill="currentColor"></path>
    <path d="M42.3335 7.56801H37.5595V16.568C37.5595 19.3323 34.9841 21.712 31.7015 21.712C29.6796 21.712 27.9515 19.8785 27.9515 17.486V7.56801H23.2115V17.486C23.2115 22.1447 26.9671 25.9739 31.6636 26.01H31.6675C33.3702 26.01 34.9689 25.6548 36.4248 25.0157C36.8674 24.821 37.2602 24.5542 37.5966 24.2313C37.5712 24.4223 37.5595 24.6118 37.5595 24.796V25.534H42.3335V7.56801Z" fill="currentColor"></path>
    <path d="M65.1751 7.53401H60.386L54.1311 20.1132C54.0498 20.2663 53.9794 20.4244 53.9196 20.5859C53.8667 20.4299 53.8056 20.2776 53.737 20.1305L47.4735 7.53401H42.6849L51.5341 25.3374L49.4488 29.436L53.3031 31.3853L65.1751 7.53401Z" fill="currentColor"></path>
    <path d="M84.0783 19.808H78.6303L78.4848 19.9494C77.385 21.0177 75.8428 21.712 74.0732 21.712C70.7905 21.712 68.2152 19.3323 68.2152 16.568C68.2152 13.7679 70.7926 11.39 74.0732 11.39C75.8428 11.39 77.385 12.0843 78.4848 13.1527L78.6303 13.294H84.0783L83.6964 12.5626C82.0051 9.324 78.3236 7.09201 74.0732 7.09201C68.2783 7.09201 63.4752 11.2739 63.4752 16.568C63.4752 21.8293 68.2796 26.01 74.0732 26.01C78.3236 26.01 82.0051 23.778 83.6964 20.5395L84.0783 19.808Z" fill="currentColor"></path>
    <path d="M93.7462 26.01V21.712H90.9002C90.472 21.712 90.1038 21.5802 89.8538 21.3919C89.6032 21.2032 89.4962 20.9821 89.4962 20.784V1.92401H84.7562V20.784C84.7562 23.7575 87.5828 26.01 90.9002 26.01H93.7462Z" fill="currentColor"></path>
    <path d="M95.5695 25.534H100.309V2.87601H95.5695V25.534Z" fill="currentColor"></path>
    <path d="M109.214 12.4254C109.154 12.4803 109.094 12.5375 109.035 12.5969C109.056 12.423 109.066 12.2498 109.066 12.08V1.92401H104.326V25.534H109.066V18.198L109.673 17.6976L116.845 25.534H122.69L112.958 14.9142L121.663 7.56801H114.979L109.222 12.4184L109.214 12.4254Z" fill="currentColor"></path>
    <path fill-rule="evenodd" clip-rule="evenodd" d="M125.424 18.462H141.253L141.343 18.0744C141.456 17.5822 141.492 17.0651 141.492 16.568C141.492 16.0367 141.456 15.5605 141.346 15.0446C140.545 10.4865 136.122 7.09201 130.86 7.09201C125.065 7.09201 120.262 11.2739 120.262 16.568C120.262 21.8293 125.066 26.01 130.86 26.01C135.11 26.01 138.792 23.778 140.483 20.5395L140.865 19.808H135.417L135.271 19.9494C134.171 21.0177 132.629 21.712 130.86 21.712C128.37 21.712 126.284 20.3479 125.424 18.462ZM125.964 14.64C125.753 14.64 125.553 14.6742 125.367 14.7386C126.212 12.8078 128.322 11.39 130.86 11.39C133.355 11.39 135.464 12.7587 136.303 14.64H125.964Z" fill="currentColor"></path>
    <path fill-rule="evenodd" clip-rule="evenodd" d="M157.088 16.116H161.862V15.616C161.862 10.9199 158.035 7.09201 153.338 7.09201C151.668 7.09201 150.106 7.44757 148.689 8.04981L148.683 8.05235C148.227 8.25316 147.806 8.53928 147.444 8.8872C147.468 8.69683 147.48 8.50304 147.48 8.30601V7.56801H142.74V25.534H147.48V16.568C147.48 13.7679 150.058 11.39 153.338 11.39C155.36 11.39 157.088 13.2236 157.088 15.616V16.116Z" fill="currentColor"></path>
    <path d="M162.47 25.5H167.21V21.202H162.47V25.5Z" fill="currentColor"></path>
  </symbol>
  <symbol xmlns="http://www.w3.org/2000/svg" xmlns:xlink="http://www.w3.org/1999/xlink" aria-hidden="true" role="img" preserveAspectRatio="xMidYMid meet" viewBox="0 0 36 36" id="england">
    <path fill="#00247D" d="M0 9.059V13h5.628zM4.664 31H13v-5.837zM23 25.164V31h8.335zM0 23v3.941L5.63 23zM31.337 5H23v5.837zM36 26.942V23h-5.631zM36 13V9.059L30.371 13zM13 5H4.664L13 10.837z"></path>
    <path fill="#CF1B2B" d="M25.14 23l9.712 6.801a3.977 3.977 0 0 0 .99-1.749L28.627 23H25.14zM13 23h-2.141l-9.711 6.8c.521.53 1.189.909 1.938 1.085L13 23.943V23zm10-10h2.141l9.711-6.8a3.988 3.988 0 0 0-1.937-1.085L23 12.057V13zm-12.141 0L1.148 6.2a3.994 3.994 0 0 0-.991 1.749L7.372 13h3.487z"></path>
    <path fill="#EEE" d="M36 21H21v10h2v-5.836L31.335 31H32a3.99 3.99 0 0 0 2.852-1.199L25.14 23h3.487l7.215 5.052c.093-.337.158-.686.158-1.052v-.058L30.369 23H36v-2zM0 21v2h5.63L0 26.941V27c0 1.091.439 2.078 1.148 2.8l9.711-6.8H13v.943l-9.914 6.941c.294.07.598.116.914.116h.664L13 25.163V31h2V21H0zM36 9a3.983 3.983 0 0 0-1.148-2.8L25.141 13H23v-.943l9.915-6.942A4.001 4.001 0 0 0 32 5h-.663L23 10.837V5h-2v10h15v-2h-5.629L36 9.059V9zM13 5v5.837L4.664 5H4a3.985 3.985 0 0 0-2.852 1.2l9.711 6.8H7.372L.157 7.949A3.968 3.968 0 0 0 0 9v.059L5.628 13H0v2h15V5h-2z"></path>
    <path fill="#CF1B2B" d="M21 15V5h-6v10H0v6h15v10h6V21h15v-6z"></path>
  </symbol>
</svg>