<?xml version="1.0" encoding="UTF-8"?>
<svg xmlns="http://www.w3.org/2000/svg" id="a" width="865.76" height="682.89" viewBox="0 0 865.76 682.89">
  <g>
    <path d="M720.45,344.37c-27.85,0-50.5-22.65-50.5-50.5s22.65-50.5,50.5-50.5,50.5,22.65,50.5,50.5-22.65,50.5-50.5,50.5Zm0-100c-27.29,0-49.5,22.21-49.5,49.5s22.21,49.5,49.5,49.5,49.5-22.21,49.5-49.5-22.21-49.5-49.5-49.5Z" fill="#002346"></path>
    <g>
      <path d="M410.88,389.76s2.38,5.24,2.66,15.23l102.28,21.99s-4-65-5-70-70-53-70-53c0,0-53,42-50,42s20.06,43.78,20.06,43.78Z" fill="#f2b3c1"></path>
      <path d="M516.35,427.6l-.64-.14-102.66-22.07v-.39c-.28-9.75-2.6-14.99-2.62-15.04v-.02c-8.04-20.6-17.65-42.84-19.64-43.46h0c-.29,0-.48-.2-.55-.39-.21-.6-.49-1.42,24.99-22.18,12.46-10.15,25.17-20.22,25.29-20.32l.29-.23,.3,.21c7.08,4.92,69.19,48.26,70.21,53.31,1,4.98,4.85,67.41,5.01,70.07l.04,.66Zm-102.33-23.02l101.25,21.77c-.42-6.85-4.02-64.63-4.95-69.27-.7-3.51-41.82-33.22-69.49-52.47-19.02,15.07-47.03,37.78-49.5,41.11,3.86,2.99,16.16,34,20,43.85,.16,.36,2.36,5.44,2.69,15.02Zm-23.21-59.1h0Z" fill="#002346"></path>
    </g>
    <g>
      <rect x="440.63" y="207.02" width="115.62" height="186.68" rx="57.81" ry="57.81" transform="translate(-66.39 440.42) rotate(-45)" fill="#f2b3c1"></rect>
      <path d="M523.56,383.79c-15.58,0-30.22-6.07-41.23-17.08l-50.24-50.24c-11.01-11.01-17.08-25.66-17.08-41.23s6.07-30.22,17.08-41.23,25.66-17.08,41.23-17.08,30.22,6.07,41.23,17.08l50.24,50.24c11.01,11.01,17.08,25.66,17.08,41.23s-6.07,30.22-17.08,41.23-25.66,17.08-41.23,17.08Zm-50.24-165.84c-14.68,0-29.35,5.59-40.52,16.76-22.34,22.35-22.34,58.7,0,81.05l50.24,50.24c22.35,22.35,58.7,22.35,81.05,0,22.34-22.35,22.34-58.7,0-81.05l-50.24-50.24c-11.17-11.17-25.85-16.76-40.52-16.76Z" fill="#002346"></path>
    </g>
    <g>
      <path d="M599.92,488.73c-8.49-.56-10.36-2.22-10.76-2.79-.02-.03-.07,0-.07,.03l7.68,61.77c.04,.29,.05,.58,.05,.87,0,1.54-.5,3.07-1.45,4.31-.7,.92-1.08,2.04-1.22,3.18l-1.77,14.18c-21.92-56.65-43.12-88.58-49.51-97.55-1.27-1.79-1.95-3.92-1.95-6.11v-13.54c0-4.05-1.58-7.93-4.39-10.85-48.58-50.64-96.64-49.34-115.09-46.43-4.54,.7-7.89,4.6-7.9,9.19v6.74c0,1.82-.7,3.56-1.93,4.9-41.53,45.17-49.63,95.41-49.63,95.41l-13.77,120.65s317.79,1.02,319.48,0c0-13.68-7.83-50.37-12.66-71.67-2.47-10.93-3.87-22.06-4.2-33.26l-1.2-42.02c-.06,.08-.14,.16-.23,.24t-.01,.01c-2.25,2.01-11.98,2.71-21.07,2.92-8.94,.21-17.26-.07-17.26-.07-4.55,.15-8.16,.09-11.02-.1" fill="#F5814F"></path>
      <path d="M578.17,633.64c-82.57,0-197.03-.35-229.97-.45h-.56s13.83-121.21,13.83-121.21c.08-.53,8.6-50.93,49.76-95.69,1.16-1.26,1.8-2.88,1.8-4.56v-6.74c.01-4.87,3.51-8.94,8.32-9.68,18.5-2.92,66.79-4.22,115.53,46.58,2.91,3.02,4.52,7,4.53,11.2v13.54c0,2.09,.64,4.11,1.86,5.82,5.98,8.4,27.04,39.94,48.85,95.81l1.53-12.21c.17-1.33,.62-2.51,1.32-3.42,.87-1.14,1.35-2.56,1.35-4.01,0-.27,0-.53-.05-.8l-7.73-62.17,.76-.32,.26,.34c.23,.33,1.82,2.01,10.38,2.57l-.07,1c-5.96-.39-8.8-1.32-10.15-2.15l7.53,60.59c.04,.31,.05,.62,.05,.93,0,1.66-.55,3.3-1.55,4.61-.59,.77-.98,1.79-1.12,2.94l-2.02,16.15-.72-1.85c-22.02-56.92-43.42-88.97-49.45-97.44-1.34-1.88-2.04-4.1-2.04-6.4v-13.54c0-3.93-1.52-7.67-4.25-10.5-48.41-50.46-96.31-49.18-114.65-46.28-4.33,.67-7.47,4.32-7.48,8.7v6.74c0,1.93-.73,3.79-2.06,5.24-40.94,44.53-49.42,94.65-49.51,95.15l-13.7,120.07c14.78,.05,306.11,.95,318.42,.06-.16-14.07-7.97-50.51-12.64-71.12-2.46-10.9-3.88-22.12-4.21-33.36l-1.17-41.01c-2.55,1.51-9.39,2.38-20.83,2.64-8.85,.21-17.21-.07-17.29-.07-4.21,.14-7.93,.1-11.04-.1l.07-1c3.07,.2,6.76,.24,10.97,.1,.12,0,8.44,.28,17.27,.07,14.89-.34,19.5-1.7,20.73-2.78l.03-.02c.08-.07,.13-.12,.16-.17l.86-1.16,1.24,43.46c.33,11.17,1.74,22.33,4.19,33.16,4.73,20.87,12.67,57.95,12.67,71.78v.28l-.24,.15c-.65,.4-39.25,.53-89.77,.53Z" fill="#002346"></path>
    </g>
    <g>
      <path d="M599.92,488.73s.08,.01,.12,.01" fill="#F5814F"></path>
      <path d="M600.04,489.24c-.06,0-.14,0-.24-.02l.21-.87,.03,.89Zm-.12-.51l.09-.49v.11s-.09,.38-.09,.38Z" fill="#002346"></path>
    </g>
    <g>
      <ellipse cx="619.4" cy="485.76" rx="30.3" ry="4.27" fill="#F5814F"></ellipse>
      <path d="M619.4,490.53c-12.38,0-30.8-1.27-30.8-4.77s18.42-4.77,30.8-4.77,30.8,1.27,30.8,4.77-18.42,4.77-30.8,4.77Zm0-8.54c-18.19,0-29.8,2.23-29.8,3.77s11.61,3.77,29.8,3.77,29.8-2.23,29.8-3.77-11.61-3.77-29.8-3.77Z" fill="#002346"></path>
    </g>
    <g>
      <path d="M649.39,485.98s2.37-7.63,3.17-10.9c1.53-6.18,2.45-12.5,2.74-18.87,.7-14.53,2.11-42.8,2.68-43.76,2.81-8.97,0-13.98,0-13.98-2.3-11.08-12.27-4.22-12.27-4.22-1.54-11.07-12.78-9.49-12.78-9.49-1-6.59-7.42-5.53-7.42-5.53-7.92-1.59-6.71,7.38-6.71,7.38l-4-4.22,3.65-7.85c1.43-3.08,.49-6.77-2.23-8.72-1.18-.85-2.53-1.25-3.86-1.25-2.13,0-4.22,1.03-5.54,2.97-.16,.24-.31,.49-.44,.75l-8.69,17.03c-.97,1.9-1.57,3.96-1.77,6.08l-2.35,24.47c-3.83,6.06-1,15.18-1,15.18l.11,3.31,.34,9.56,.55,16.01c-.03,.8,.04,1.8,.17,2.94v.04c.02,.09,.03,.18,.04,.27h0c.66,5.16,2.7,13.05,4.42,19.2,.7,2.51,1.36,4.73,1.84,6.36,0,0,4.28,1.74,32.28,.74,0,0,14.16,0,17.08-3.5Z" fill="#f2b3c1"></path>
      <path d="M616.88,490.29c-14.15,0-16.89-1.03-17.03-1.09l-.22-.09-.21-.71c-.46-1.58-1.07-3.61-1.7-5.89-2.41-8.6-3.9-15.08-4.43-19.26l-.03-.29c-.16-1.33-.21-2.29-.18-3.05l-1-28.78c-.27-.9-2.68-9.45,1.01-15.43l2.34-24.35c.21-2.19,.83-4.3,1.83-6.26l8.69-17.03c.14-.28,.3-.54,.47-.8,1.36-2,3.59-3.19,5.96-3.19,1.5,0,2.93,.46,4.15,1.34,2.92,2.1,3.93,6.02,2.39,9.34l-3.51,7.54,2.83,2.99c.01-1.53,.31-3.95,1.91-5.45,1.26-1.18,3.07-1.56,5.38-1.11,.54-.07,3.15-.32,5.28,1.23,1.31,.95,2.17,2.39,2.54,4.26,1.39-.1,5.46-.17,8.73,2.3,2.1,1.59,3.45,3.91,4.01,6.92,1.46-.84,5.05-2.59,8.12-1.35,2.13,.85,3.56,2.95,4.25,6.22,.35,.68,2.7,5.7,0,14.3l-.05,.11c-.21,.57-.85,7.05-2.61,43.53-.29,6.37-1.22,12.75-2.75,18.97-.42,1.7-1.26,4.58-1.89,6.7-.88,2.95-1.2,4-1.41,4.37l.03,.03c-3.03,3.63-16.81,3.68-17.46,3.68h0c-6.25,.22-11.33,.31-15.44,.31Zm-16.44-1.95c1.15,.3,7.38,1.51,31.86,.64h0c3.86,0,14.25-.58,16.64-3.25,.28-.89,2.38-7.71,3.13-10.77,1.52-6.15,2.44-12.46,2.73-18.77,1.96-40.68,2.49-43.46,2.72-43.93,2.68-8.6,.05-13.49,.03-13.54l-.05-.14c-.62-2.97-1.85-4.84-3.66-5.57-3.39-1.36-7.79,1.63-7.84,1.66l-.67,.46-.11-.8c-1.45-10.44-11.78-9.12-12.21-9.06l-.49,.07-.07-.49c-.28-1.83-1.03-3.2-2.22-4.07-2-1.45-4.6-1.04-4.62-1.04h-.09s-.09,0-.09,0c-2.01-.41-3.56-.12-4.58,.84-2.05,1.92-1.54,5.94-1.53,5.98l.2,1.53-5.3-5.59,3.79-8.16c1.34-2.88,.47-6.29-2.07-8.1-1.05-.76-2.28-1.16-3.57-1.16-2.04,0-3.95,1.03-5.13,2.75-.15,.22-.29,.45-.41,.69l-8.7,17.03c-.94,1.85-1.52,3.84-1.72,5.9l-2.36,24.59-.06,.1c-3.66,5.79-.97,14.67-.95,14.76l.02,.13,1,28.88c-.03,.74,.03,1.68,.17,2.9l.04,.31c.53,4.14,2.01,10.57,4.41,19.12,.63,2.27,1.23,4.3,1.7,5.87l.07,.22Z" fill="#002346"></path>
    </g>
    <g>
      <polygon points="562.58 320.54 640.46 412.05 636.88 415.45 558.49 323.24 562.58 320.54" fill="#fbe493"></polygon>
      <path d="M636.84,416.17l-79.1-93.04,4.93-3.25,.29,.34,78.19,91.87-4.31,4.09Zm-77.61-92.83l77.68,91.38,2.85-2.71-77.29-90.81-3.25,2.15Z" fill="#002346"></path>
    </g>
    <g>
      <polygon points="646.8 424.23 647.86 423.41 640.46 412.05 636.88 415.45 646.8 424.23" fill="#fff"></polygon>
      <path d="M646.78,424.87l-10.64-9.42,4.41-4.19,7.98,12.25-1.75,1.35Zm-9.16-9.44l9.2,8.14,.37-.28-6.82-10.47-2.75,2.61Z" fill="#002346"></path>
    </g>
    <g>
      <polygon points="649.43 426.21 647.86 423.41 646.8 424.23 649.43 426.21" fill="#002346"></polygon>
      <path d="M651.03,428.04l-5.05-3.81,2.04-1.57,3.02,5.38Zm-3.41-3.82l.21,.15-.12-.22-.08,.06Z" fill="#0d2445"></path>
    </g>
    <g>
      <path d="M453.48,186.84s-1,11-42.6,34.46c0,0-48.82,30.63-52.17,41.64,0,0-4.79,8.14-2.87,15.8,0,0-16.85,17.71-.48,49,1.76,3.36,3.5,6.71,5.12,10.13,6,12.64,23.58,45,50.4,51.89,0,0,39.73-27.76,23-49.78,0,0-17.56-17.5-6.56-28.5,0,0,6.56-6.45,19,5l12,6s15.7,4.66,20-3c0,0-17.2-34.12-14.29-50.4,0,0,2.39-25.37-9.57-41.64,0,0,30.15-5.74,23.45-21.54-.02,.08-5.76-9.97-24.43-19.06Z" fill="#002346"></path>
      <path d="M410.97,390.3l-.22-.06c-26.69-6.86-44.37-38.76-50.73-52.16-1.62-3.43-3.34-6.74-5.11-10.11-15.41-29.45-1.43-47.26,.38-49.37-1.73-7.46,2.52-15.1,2.96-15.87,3.51-11.11,50.37-40.61,52.37-41.86,40.65-22.92,42.36-33.98,42.37-34.09l.08-.7,.64,.3c15.91,7.75,22.63,16.29,24.44,18.96l.08-.02,.16,.37c1.41,3.33,1.34,6.49-.21,9.39-4.39,8.22-19.25,11.9-22.85,12.68,11.43,16.26,9.24,41.1,9.21,41.35-2.85,15.97,14.07,49.79,14.24,50.13l.12,.24-.13,.23c-4.45,7.92-19.92,3.43-20.58,3.23l-12.2-6.11c-11.9-10.96-18.06-5.26-18.31-5.01-2.3,2.3-3.47,5.1-3.47,8.31,0,9.37,9.94,19.38,10.04,19.48,3.55,4.67,4.88,9.89,3.99,15.58-2.8,17.84-26.07,34.28-27.05,34.97l-.19,.13Zm42.84-202.74c-.88,2.75-6.53,13.78-42.69,34.17-.47,.29-48.68,30.64-51.94,41.35l-.05,.11c-.05,.08-4.66,8.06-2.81,15.43l.07,.27-.19,.2c-.17,.17-16.4,17.84-.4,48.42,1.77,3.38,3.5,6.71,5.13,10.15,6.28,13.23,23.69,44.69,49.85,51.56,2.24-1.62,23.85-17.58,26.45-34.17,.85-5.4-.42-10.37-3.75-14.76-.38-.37-10.28-10.35-10.29-20.14,0-3.48,1.26-6.52,3.77-9.02,.29-.28,7.03-6.63,19.64,4.94l11.94,5.97c.07,.01,14.96,4.33,19.21-2.57-1.67-3.34-17.02-34.75-14.21-50.47,.02-.21,2.23-25.33-9.48-41.26l-.47-.64,.78-.15c.18-.03,18.24-3.57,22.92-12.32,1.39-2.61,1.46-5.46,.19-8.48-.03-.03-.05-.07-.07-.1-1.6-2.4-8-10.77-23.58-18.48Z" fill="#0d2445"></path>
    </g>
    <g>
      <path d="M597.65,428.69s4.94-4.3,4.43-13.09c0,0,.17-7.72,3.58-12.65,0,0,1.55-8.24,.61-13.87-.23-1.48,.7-2.9,2.13-3.21,4.09-.93,11.4-.65,12.26,12.68,0,0-.34,18.46-5.46,26.19,0,0-1.7,4.4,.35,8.09,2.4,1.98,4.5,4.32,6.23,6.95,4.34,6.47,6.63,14.18,6.55,22.05" fill="#f2b3c1"></path>
      <path d="M628.83,461.83h-1c.08-7.83-2.16-15.35-6.46-21.78-1.7-2.59-3.77-4.89-6.13-6.84l-.12-.14c-2.14-3.85-.45-8.33-.38-8.51l.05-.1c4.98-7.52,5.37-25.74,5.38-25.92-.35-5.4-1.82-9.13-4.37-11.03-2.38-1.78-5.28-1.61-7.28-1.15-1.17,.25-1.94,1.42-1.75,2.65,.94,5.65-.55,13.7-.61,14.04l-.08,.19c-3.28,4.75-3.49,12.3-3.49,12.38,.52,8.89-4.39,13.27-4.6,13.46l-.66-.75s4.75-4.27,4.26-12.68c0-.36,.21-7.88,3.61-12.87,.17-.96,1.45-8.45,.59-13.59-.27-1.76,.83-3.42,2.52-3.78,2.2-.5,5.41-.68,8.1,1.33,2.79,2.08,4.4,6.06,4.77,11.81-.01,.8-.4,18.66-5.51,26.45-.17,.47-1.44,4.32,.29,7.54,2.41,2,4.52,4.36,6.26,7,4.42,6.59,6.71,14.31,6.63,22.33Z" fill="#002346"></path>
    </g>
    <path d="M237.95,125.86c-.28,0-.5-.22-.5-.5v-10.28c0-3.74,3.04-6.79,6.79-6.79h121.75c.28,0,.5,.22,.5,.5s-.22,.5-.5,.5h-121.75c-3.19,0-5.79,2.6-5.79,5.79v10.28c0,.28-.22,.5-.5,.5Z" fill="#002346"></path>
    <path d="M143.59,267.41c-.28,0-.5-.22-.5-.5v-73.78c0-3.74,3.04-6.79,6.79-6.79h10.61c.28,0,.5,.22,.5,.5s-.22,.5-.5,.5h-10.61c-3.19,0-5.79,2.6-5.79,5.79v73.78c0,.28-.22,.5-.5,.5Z" fill="#002346"></path>
    <path d="M646.8,114.14c-.28,0-.5-.22-.5-.5v-27.22c0-3.19-2.6-5.79-5.79-5.79h-116.06c-.28,0-.5-.22-.5-.5s.22-.5,.5-.5h116.06c3.74,0,6.79,3.04,6.79,6.79v27.22c0,.28-.22,.5-.5,.5Z" fill="#002346"></path>
    <path d="M663.24,295.82h-7.45c-3.74,0-6.79-3.04-6.79-6.79v-60.5c0-.28,.22-.5,.5-.5s.5,.22,.5,.5v60.5c0,3.19,2.6,5.79,5.79,5.79h7.45c.28,0,.5,.22,.5,.5s-.22,.5-.5,.5Z" fill="#002346"></path>
    <path d="M432.43,197.54c-.28,0-.5-.22-.5-.5v-28.35c0-.28,.22-.5,.5-.5s.5,.22,.5,.5v28.35c0,.28-.22,.5-.5,.5Z" fill="#002346"></path>
    <g>
      <ellipse cx="442.32" cy="324.98" rx="16.5" ry="22" transform="translate(-100.24 407.95) rotate(-45)" fill="#f2b3c1"></ellipse>
      <path d="M447.78,344.91c-5.81,0-12.31-2.73-17.49-7.91-8.77-8.77-10.52-21.3-3.89-27.93,6.63-6.63,19.16-4.88,27.93,3.89,4.23,4.23,6.97,9.45,7.72,14.7,.76,5.3-.61,10-3.84,13.23-2.71,2.71-6.41,4.02-10.44,4.02Zm-10.93-38.88c-3.77,0-7.22,1.22-9.74,3.74-6.24,6.24-4.49,18.13,3.89,26.52,8.38,8.38,20.28,10.13,26.52,3.89,3-3,4.26-7.4,3.55-12.38-.72-5.04-3.36-10.06-7.44-14.13-4.99-4.99-11.23-7.63-16.78-7.63Z" fill="#002346"></path>
    </g>
    <path d="M532.32,467.98c-.12,0-.23-.04-.33-.12-63.12-55.23-117.31-53.32-117.85-53.31-.26,.02-.51-.2-.52-.48s.2-.51,.48-.52c.55-.03,55.15-1.93,118.56,53.55,.21,.18,.23,.5,.05,.71-.1,.11-.24,.17-.38,.17Z" fill="#002346"></path>
    <g>
      <path d="M632.94,384.76l-.62,12.72s.81,14.75-12.59,12.87l.93-11.8s-.99-6.29-1.67-8.18l-.18-5.87" fill="#f2b3c1"></path>
      <path d="M621.97,411.01c-.74,0-1.51-.06-2.32-.17l-.47-.07,.97-12.21c-.1-.64-1.02-6.31-1.64-8.03l-.03-.15-.18-5.87,1-.03,.18,5.79c.68,1.99,1.62,7.94,1.67,8.2v.06s-.89,11.39-.89,11.39c3.38,.38,6.07-.33,8.02-2.11,3.86-3.55,3.55-10.23,3.54-10.3l.62-12.77,1,.05-.62,12.72c.02,.24,.35,7.16-3.86,11.03-1.79,1.65-4.14,2.48-6.98,2.48Z" fill="#002346"></path>
    </g>
    <g>
      <path d="M645.72,394.25s-1.71,21.65-18.98,15.41c-.22-.08-.24-.38-.04-.49,1.66-.89,6.45-4.06,5.62-10.69l.42-10.13" fill="#f2b3c1"></path>
      <path d="M632.55,411.29c-1.85,0-3.85-.39-5.99-1.16-.29-.1-.49-.37-.51-.67-.02-.3,.14-.59,.4-.73,1.46-.78,6.16-3.82,5.36-10.18l.42-10.21,1,.04-.42,10.13c.8,6.36-3.5,9.7-5.44,10.85,4.24,1.43,7.85,1.21,10.72-.64,6.22-4.01,7.11-14.4,7.12-14.5l1,.08c-.04,.45-.94,10.99-7.57,15.26-1.79,1.16-3.83,1.73-6.09,1.73Z" fill="#002346"></path>
    </g>
    <g>
      <path d="M743.72,305c-1.21-1.09-2.68-1.7-4.18-1.85l9.26-10.24-11.14-10.08c.03,1.8-.59,3.61-1.89,5.05-2.73,3.01-7.38,3.25-10.39,.52-3.01-2.73-3.25-7.38-.52-10.39,1.3-1.44,3.04-2.24,4.84-2.39l-11.14-10.08-8.97,9.91c-.38-1.19-1.07-2.3-2.06-3.2-3.01-2.73-7.66-2.49-10.39,.52s-2.49,7.66,.52,10.39c.99,.9,2.17,1.47,3.39,1.73l-8.97,9.91,12.38,11.2c-.77-2.41-.27-5.15,1.55-7.17,2.73-3.01,7.38-3.25,10.39-.52,3.01,2.73,3.25,7.38,.52,10.39-1.82,2.01-4.5,2.78-6.98,2.26l12.38,11.2,9.26-10.24c.3,1.48,1.06,2.89,2.26,3.98,3.01,2.73,7.66,2.49,10.39-.52s2.49-7.66-.52-10.39Z" fill="#F5814F"></path>
      <path d="M722.33,322.67c-.12,0-.24-.05-.33-.13l-12.38-11.2c-.17-.15-.21-.4-.11-.6,.1-.2,.33-.3,.55-.26,2.38,.5,4.88-.3,6.5-2.1,1.23-1.36,1.86-3.11,1.76-4.94-.09-1.83-.89-3.51-2.25-4.74-2.81-2.54-7.15-2.32-9.68,.48-1.63,1.8-2.18,4.36-1.44,6.68,.07,.22-.02,.45-.21,.57-.19,.12-.44,.1-.61-.05l-12.38-11.2c-.1-.09-.16-.21-.16-.35,0-.13,.04-.26,.13-.36l8.42-9.31c-1.04-.34-2-.9-2.81-1.63-3.21-2.91-3.46-7.88-.56-11.1,1.41-1.56,3.34-2.47,5.43-2.58,2.1-.1,4.11,.61,5.66,2.02,.81,.73,1.46,1.63,1.9,2.63l8.42-9.3c.19-.21,.5-.22,.71-.04l11.14,10.08c.15,.13,.2,.34,.14,.53s-.23,.32-.43,.34c-1.74,.15-3.34,.94-4.51,2.22-1.23,1.36-1.86,3.11-1.76,4.94,.09,1.83,.89,3.51,2.25,4.74,2.8,2.54,7.15,2.32,9.68-.48,1.17-1.29,1.79-2.96,1.76-4.71,0-.2,.11-.38,.29-.46,.18-.08,.39-.05,.54,.08l11.14,10.08c.1,.09,.16,.21,.16,.35,0,.13-.04,.26-.13,.36l-8.64,9.55c1.32,.29,2.52,.92,3.53,1.83h0c3.21,2.91,3.46,7.88,.56,11.1-2.91,3.21-7.88,3.46-11.1,.56-1.01-.91-1.75-2.05-2.17-3.33l-8.64,9.55c-.09,.1-.21,.16-.35,.16,0,0-.02,0-.03,0Zm-10.91-11.05l10.88,9.84,8.92-9.87c.13-.14,.32-.2,.5-.15,.18,.05,.32,.2,.36,.38,.29,1.44,1.02,2.73,2.11,3.71,1.36,1.23,3.09,1.85,4.94,1.76,1.83-.09,3.51-.89,4.74-2.25,1.23-1.36,1.86-3.11,1.76-4.94s-.89-3.51-2.25-4.74h0c-1.09-.98-2.43-1.58-3.9-1.73-.19-.02-.35-.14-.42-.32-.07-.18-.03-.38,.1-.51l8.92-9.87-9.99-9.04c-.19,1.6-.87,3.1-1.96,4.31-2.91,3.21-7.89,3.46-11.1,.56-3.21-2.91-3.46-7.88-.56-11.1,1.09-1.21,2.52-2.03,4.09-2.39l-9.99-9.04-8.63,9.54c-.12,.13-.3,.19-.48,.15-.17-.04-.32-.17-.37-.34-.37-1.15-1.03-2.18-1.92-2.98-1.36-1.23-3.12-1.85-4.94-1.76-1.83,.09-3.51,.89-4.74,2.25-2.54,2.8-2.32,7.15,.48,9.68,.89,.8,1.98,1.36,3.16,1.61,.17,.04,.32,.17,.37,.33,.05,.17,.02,.36-.1,.49l-8.63,9.54,10.88,9.84c-.23-2.2,.47-4.44,1.98-6.1,2.91-3.21,7.88-3.46,11.1-.56,1.56,1.41,2.47,3.34,2.58,5.43s-.61,4.11-2.02,5.66c-1.51,1.67-3.68,2.63-5.88,2.58Z" fill="#002346"></path>
    </g>
    <path d="M649.32,221.98c-27.85,0-50.5-22.65-50.5-50.5s22.65-50.5,50.5-50.5,50.5,22.65,50.5,50.5-22.65,50.5-50.5,50.5Zm0-100c-27.29,0-49.5,22.21-49.5,49.5s22.21,49.5,49.5,49.5,49.5-22.21,49.5-49.5-22.21-49.5-49.5-49.5Z" fill="#002346"></path>
    <path d="M218.32,232.98c-27.85,0-50.5-22.65-50.5-50.5s22.65-50.5,50.5-50.5,50.5,22.65,50.5,50.5-22.65,50.5-50.5,50.5Zm0-100c-27.29,0-49.5,22.21-49.5,49.5s22.21,49.5,49.5,49.5,49.5-22.21,49.5-49.5-22.21-49.5-49.5-49.5Z" fill="#002346"></path>
    <path d="M145.32,372.98c-27.85,0-50.5-22.65-50.5-50.5s22.65-50.5,50.5-50.5,50.5,22.65,50.5,50.5-22.65,50.5-50.5,50.5Zm0-100c-27.29,0-49.5,22.21-49.5,49.5s22.21,49.5,49.5,49.5,49.5-22.21,49.5-49.5-22.21-49.5-49.5-49.5Z" fill="#002346"></path>
    <g>
      <path d="M681.82,151.38v40.2c0,4.36-3.54,7.9-7.9,7.9h-49.2c-2,0-3.83-.74-5.22-1.98-1.64-1.44-2.68-3.56-2.68-5.92v-40.2c0-4.36,3.54-7.9,7.9-7.9h49.2c4.36,0,7.9,3.54,7.9,7.9Z" fill="#fff"></path>
      <path d="M673.92,199.98h-49.2c-2.06,0-4.03-.75-5.55-2.11-1.81-1.59-2.85-3.88-2.85-6.29v-40.2c0-4.63,3.77-8.4,8.4-8.4h49.2c4.63,0,8.4,3.77,8.4,8.4v40.2c0,4.63-3.77,8.4-8.4,8.4Zm-49.2-56c-4.08,0-7.4,3.32-7.4,7.4v40.2c0,2.12,.92,4.14,2.51,5.54,1.34,1.2,3.08,1.86,4.89,1.86h49.2c4.08,0,7.4-3.32,7.4-7.4v-40.2c0-4.08-3.32-7.4-7.4-7.4h-49.2Z" fill="#002346"></path>
    </g>
    <g>
      <path d="M681.82,191.58c0,4.36-3.54,7.9-7.9,7.9h-27.14c1.37-6.67,3.24-15.02,3.24-15.02l9.95-14.07c.69-.98,2.11-1.05,2.9-.16l18.95,21.35Z" fill="#e6e7e8"></path>
      <path d="M673.92,199.98h-27.75l.12-.6c1.36-6.6,3.22-14.94,3.24-15.03l.08-.18,9.95-14.07c.42-.59,1.07-.95,1.79-.99,.72-.03,1.41,.25,1.89,.79l19.08,21.5v.19c0,4.63-3.77,8.4-8.4,8.4Zm-26.53-1h26.53c4.02,0,7.3-3.22,7.4-7.21l-18.82-21.21c-.28-.31-.68-.49-1.09-.45-.42,.02-.79,.23-1.03,.57l-9.89,13.99c-.21,.93-1.83,8.22-3.09,14.31Z" fill="#002346"></path>
    </g>
    <g>
      <path d="M658.39,199.48h-33.67c-2,0-3.83-.74-5.22-1.98l16.27-31.06c.68-1.29,2.51-1.33,3.24-.08l19.38,33.11Z" fill="#F5814F"></path>
      <path d="M658.38,199.98h-33.67c-2.06,0-4.03-.75-5.55-2.11-.17-.15-.22-.4-.11-.61l16.27-31.06c.4-.77,1.16-1.24,2.03-1.26,.88,0,1.65,.42,2.09,1.16l19.38,33.11c.09,.16,.09,.35,0,.5s-.25,.25-.43,.25Zm-38.26-2.6c1.29,1.04,2.91,1.6,4.59,1.6h32.8l-18.94-32.36c-.25-.43-.68-.69-1.2-.67-.5,.01-.94,.28-1.17,.73l-16.08,30.7Z" fill="#002346"></path>
    </g>
    <g>
      <circle cx="665.32" cy="155.48" r="6" fill="#fbe493"></circle>
      <path d="M665.32,161.98c-3.58,0-6.5-2.92-6.5-6.5s2.92-6.5,6.5-6.5,6.5,2.92,6.5,6.5-2.92,6.5-6.5,6.5Zm0-12c-3.03,0-5.5,2.47-5.5,5.5s2.47,5.5,5.5,5.5,5.5-2.47,5.5-5.5-2.47-5.5-5.5-5.5Z" fill="#002346"></path>
    </g>
    <g>
      <g>
        <ellipse cx="217.1" cy="216.39" rx="5.45" ry="4.64" fill="#fff"></ellipse>
        <path d="M217.1,221.54c-3.28,0-5.95-2.31-5.95-5.14s2.67-5.14,5.95-5.14,5.95,2.31,5.95,5.14-2.67,5.14-5.95,5.14Zm0-9.29c-2.73,0-4.95,1.86-4.95,4.14s2.22,4.14,4.95,4.14,4.95-1.86,4.95-4.14-2.22-4.14-4.95-4.14Z" fill="#002346"></path>
      </g>
      <g>
        <path d="M206.61,204.28h21v6.8c0,2.93-2.38,5.32-5.32,5.32h-10.36c-2.93,0-5.32-2.38-5.32-5.32v-6.8h0Z" fill="#002346"></path>
        <path d="M222.29,216.89h-10.36c-3.21,0-5.82-2.61-5.82-5.82v-7.3h22v7.3c0,3.21-2.61,5.82-5.82,5.82Zm-15.18-12.11v6.3c0,2.66,2.16,4.82,4.82,4.82h10.36c2.66,0,4.82-2.16,4.82-4.82v-6.3h-20Z" fill="#0d2445"></path>
      </g>
      <g>
        <path d="M238.7,179.85c0-12.11-10.05-21.87-22.27-21.38-11.12,.44-20.15,9.52-20.52,20.65-.23,6.78,2.71,12.89,7.44,16.96,2.69,2.31,4.26,5.67,4.26,9.21h0s19.38,0,19.38,0v-.22c0-3.47,1.58-6.71,4.22-8.96,4.58-3.92,7.49-9.75,7.49-16.26Z" fill="#fbe493"></path>
        <path d="M227.5,205.79h-20.38v-.5c0-3.38-1.49-6.6-4.08-8.83-5.06-4.35-7.84-10.68-7.61-17.35,.38-11.4,9.6-20.68,21-21.13,6.03-.23,11.73,1.93,16.06,6.09,4.34,4.17,6.73,9.78,6.73,15.79,0,6.4-2.79,12.47-7.67,16.64-2.57,2.2-4.04,5.33-4.04,8.58v.72Zm-19.39-1h18.39c.08-3.45,1.67-6.74,4.39-9.06,4.65-3.98,7.32-9.77,7.32-15.88,0-5.74-2.28-11.09-6.42-15.07-4.14-3.98-9.58-6.04-15.33-5.81-10.87,.43-19.67,9.29-20.04,20.17-.21,6.37,2.44,12.41,7.27,16.56,2.69,2.31,4.28,5.6,4.42,9.09Z" fill="#002346"></path>
      </g>
      <path d="M220.54,204.17s-.03,0-.05,0c-.28-.03-.48-.27-.45-.54,.47-5.2,.67-7.49,.92-10.44,.16-1.88,.34-4.02,.63-7.34-.35,.15-.74,.21-1.13,.15-.51-.07-.88-.32-1.13-.56-.35,.28-.86,.57-1.63,.57-.73-.02-1.26-.34-1.59-.62-.42,.31-1.15,.69-2.07,.62-.4-.03-.74-.14-1.03-.27l1.52,17.81c.02,.28-.18,.52-.46,.54-.28,.01-.52-.18-.54-.46l-1.61-18.79c-.02-.21,.12-.45,.31-.54,.19-.09,.46-.04,.6,.11,.2,.2,.64,.54,1.27,.59,.87,.07,1.47-.47,1.64-.63,.1-.1,.27-.16,.41-.16,.14,0,.3,.08,.39,.19,.11,.14,.52,.58,1.17,.6,.73,0,1.11-.45,1.23-.59,.1-.12,.28-.19,.44-.2,.16,0,.34,.11,.42,.25,.07,.11,.34,.47,.79,.54,.41,.06,.83-.13,1.1-.49,.13-.18,.41-.27,.62-.18,.21,.08,.36,.32,.35,.54-.35,3.94-.55,6.33-.73,8.39-.25,2.95-.45,5.25-.92,10.45-.02,.26-.24,.46-.5,.46Z" fill="#002346"></path>
      <path d="M187.02,195.29c-.18,0-.35-.09-.44-.26-.13-.24-.04-.55,.2-.68l8.08-4.44c.24-.13,.54-.04,.68,.2,.13,.24,.04,.55-.2,.68l-8.08,4.44c-.08,.04-.16,.06-.24,.06Z" fill="#002346"></path>
      <path d="M247.99,198.92c-.08,0-.16-.02-.24-.06l-8.08-4.44c-.24-.13-.33-.44-.2-.68,.13-.24,.44-.33,.68-.2l8.08,4.44c.24,.13,.33,.44,.2,.68-.09,.17-.26,.26-.44,.26Z" fill="#002346"></path>
      <path d="M240.72,167.43c-.18,0-.35-.09-.44-.26-.13-.24-.04-.55,.2-.68l8.08-4.44c.24-.13,.54-.04,.68,.2,.13,.24,.04,.55-.2,.68l-8.08,4.44c-.08,.04-.16,.06-.24,.06Z" fill="#002346"></path>
      <path d="M195.5,165.41c-.08,0-.16-.02-.24-.06l-8.08-4.44c-.24-.13-.33-.44-.2-.68,.13-.24,.44-.33,.68-.2l8.08,4.44c.24,.13,.33,.44,.2,.68-.09,.17-.26,.26-.44,.26Z" fill="#002346"></path>
      <path d="M217.71,153.71c-.28,0-.5-.22-.5-.5v-9.29c0-.28,.22-.5,.5-.5s.5,.22,.5,.5v9.29c0,.28-.22,.5-.5,.5Z" fill="#002346"></path>
      <g>
        <circle cx="245.97" cy="172.58" r="1.21" fill="#fff"></circle>
        <path d="M245.97,174.3c-.94,0-1.71-.77-1.71-1.71s.77-1.71,1.71-1.71,1.71,.77,1.71,1.71-.77,1.71-1.71,1.71Zm0-2.42c-.39,0-.71,.32-.71,.71s.32,.71,.71,.71,.71-.32,.71-.71-.32-.71-.71-.71Z" fill="#002346"></path>
      </g>
      <g>
        <circle cx="248.39" cy="180.66" r="1.21" fill="#fff"></circle>
        <path d="M248.39,182.37c-.94,0-1.71-.77-1.71-1.71s.77-1.71,1.71-1.71,1.71,.77,1.71,1.71-.77,1.71-1.71,1.71Zm0-2.42c-.39,0-.71,.32-.71,.71s.32,.71,.71,.71,.71-.32,.71-.71-.32-.71-.71-.71Z" fill="#002346"></path>
      </g>
      <g>
        <circle cx="245.97" cy="189.14" r="1.21" fill="#fff"></circle>
        <path d="M245.97,190.85c-.94,0-1.71-.77-1.71-1.71s.77-1.71,1.71-1.71,1.71,.77,1.71,1.71-.77,1.71-1.71,1.71Zm0-2.42c-.39,0-.71,.32-.71,.71s.32,.71,.71,.71,.71-.32,.71-.71-.32-.71-.71-.71Z" fill="#002346"></path>
      </g>
      <g>
        <rect x="204.18" y="203.67" width="25.84" height="2.42" rx="1.21" ry="1.21" fill="#fff"></rect>
        <path d="M228.81,206.6h-23.42c-.94,0-1.71-.77-1.71-1.71s.77-1.71,1.71-1.71h23.42c.94,0,1.71,.77,1.71,1.71s-.77,1.71-1.71,1.71Zm-23.42-2.42c-.39,0-.71,.32-.71,.71s.32,.71,.71,.71h23.42c.39,0,.71-.32,.71-.71s-.32-.71-.71-.71h-23.42Z" fill="#002346"></path>
      </g>
      <g>
        <rect x="204.39" y="208.92" width="25.84" height="2.42" rx="1.21" ry="1.21" fill="#fff"></rect>
        <path d="M229.01,211.84h-23.42c-.94,0-1.71-.77-1.71-1.71s.77-1.71,1.71-1.71h23.42c.94,0,1.71,.77,1.71,1.71s-.77,1.71-1.71,1.71Zm-23.42-2.42c-.39,0-.71,.32-.71,.71s.32,.71,.71,.71h23.42c.39,0,.71-.32,.71-.71s-.32-.71-.71-.71h-23.42Z" fill="#002346"></path>
      </g>
    </g>
    <g>
      <g>
        <rect x="134.85" y="307.68" width="20.93" height="5.29" rx="2.65" ry="2.65" fill="#F5814F"></rect>
        <path d="M153.14,313.47h-15.64c-1.74,0-3.15-1.41-3.15-3.15s1.41-3.15,3.15-3.15h15.64c1.74,0,3.15,1.41,3.15,3.15s-1.41,3.15-3.15,3.15Zm-15.64-5.29c-1.18,0-2.15,.96-2.15,2.15s.96,2.15,2.15,2.15h15.64c1.18,0,2.15-.96,2.15-2.15s-.96-2.15-2.15-2.15h-15.64Z" fill="#002346"></path>
      </g>
      <g>
        <path d="M147.67,289.39c.51-.57,.82-1.32,.83-2.14,.01-1.79-1.43-3.26-3.23-3.27s-3.26,1.43-3.27,3.23c0,.85,.32,1.63,.86,2.21-3.17,1.03-5.47,3.99-5.49,7.5-.03,4.39,3.51,7.96,7.89,7.99s7.96-3.51,7.99-7.89c.02-3.58-2.33-6.62-5.58-7.63Z" fill="#F5814F"></path>
        <path d="M145.32,305.41h-.05c-2.25-.01-4.37-.9-5.95-2.51-1.58-1.6-2.45-3.73-2.44-5.98,.02-3.41,2.08-6.44,5.19-7.74-.37-.59-.56-1.28-.55-1.98,.01-2.06,1.69-3.73,3.75-3.73h.02c1,0,1.94,.4,2.64,1.11,.7,.71,1.09,1.66,1.08,2.66,0,.67-.19,1.32-.53,1.89,3.21,1.29,5.31,4.37,5.28,7.88-.01,2.25-.9,4.37-2.51,5.95-1.59,1.57-3.7,2.44-5.93,2.44Zm-.06-20.94c-1.51,0-2.74,1.22-2.75,2.73,0,.69,.25,1.36,.73,1.87l.53,.57-.74,.24c-3.06,.99-5.12,3.82-5.14,7.03-.01,1.99,.75,3.86,2.15,5.28,1.4,1.41,3.26,2.2,5.25,2.21h.05c1.97,0,3.83-.76,5.23-2.15,1.41-1.4,2.2-3.26,2.21-5.25,.02-3.3-2.08-6.17-5.23-7.15l-.74-.23,.52-.58c.45-.5,.7-1.15,.7-1.81,0-1.52-1.22-2.76-2.73-2.76h-.02Z" fill="#002346"></path>
      </g>
      <g>
        <rect x="130.52" y="341.25" width="29.6" height="5.53" rx="2.77" ry="2.77" fill="#F5814F"></rect>
        <path d="M157.35,347.28h-24.06c-1.8,0-3.27-1.47-3.27-3.27s1.47-3.27,3.27-3.27h24.06c1.8,0,3.27,1.47,3.27,3.27s-1.47,3.27-3.27,3.27Zm-24.06-5.53c-1.25,0-2.27,1.02-2.27,2.27s1.02,2.27,2.27,2.27h24.06c1.25,0,2.27-1.02,2.27-2.27s-1.02-2.27-2.27-2.27h-24.06Z" fill="#002346"></path>
      </g>
      <g>
        <rect x="128.59" y="355.44" width="33.45" height="5.53" rx="2.77" ry="2.77" fill="#F5814F"></rect>
        <path d="M159.27,361.48h-27.91c-1.8,0-3.27-1.47-3.27-3.27s1.47-3.27,3.27-3.27h27.91c1.8,0,3.27,1.47,3.27,3.27s-1.47,3.27-3.27,3.27Zm-27.91-5.53c-1.25,0-2.27,1.02-2.27,2.27s1.02,2.27,2.27,2.27h27.91c1.25,0,2.27-1.02,2.27-2.27s-1.02-2.27-2.27-2.27h-27.91Z" fill="#002346"></path>
      </g>
      <g>
        <path d="M152.41,307.8l5.78-12.03c-4.09-2.17-6.02,.96-6.02,.96-1.2-2.41-3.37-2.89-3.37-2.89-2.17,.48-3.61,3.13-3.61,3.13-.72-2.17-3.37-3.13-3.37-3.13-2.17,.72-3.13,3.37-3.13,3.37-2.17-2.89-6.26-.96-6.26-.96l5.64,11.48,14.33,.07Z" fill="#fff"></path>
        <path d="M152.73,308.3l-14.96-.08-6-12.21,.46-.22c1.41-.66,4.37-1.3,6.33,.51,.47-.91,1.47-2.4,3.11-2.94l.17-.05,.16,.06c.1,.04,2.2,.82,3.27,2.57,.64-.88,1.84-2.24,3.43-2.59l.11-.02,.11,.02c.09,.02,2.02,.47,3.34,2.51,.88-.89,2.93-2.25,6.17-.54l.43,.23-6.12,12.75Zm-14.33-1.07l13.71,.07,5.42-11.3c-3.31-1.49-4.86,.89-4.93,1l-.47,.75-.4-.79c-.94-1.88-2.51-2.47-2.93-2.59-1.86,.5-3.15,2.83-3.17,2.85l-.55,1.01-.36-1.09c-.54-1.62-2.35-2.51-2.9-2.75-1.79,.71-2.64,2.98-2.65,3l-.32,.86-.55-.74c-1.49-1.99-4.1-1.36-5.17-1l5.26,10.71Z" fill="#002346"></path>
      </g>
      <g>
        <polygon points="140.26 312.97 134.37 341.25 156.26 341.25 150.47 312.97 140.26 312.97" fill="#fff"></polygon>
        <path d="M156.88,341.75h-23.13l6.1-29.27h11.02l6,29.27Zm-21.9-1h20.67l-5.59-27.27h-9.4l-5.69,27.27Z" fill="#002346"></path>
      </g>
      <g>
        <polygon points="133.28 346.78 130.76 355.44 159.87 355.44 157.79 346.69 133.28 346.78" fill="#fff"></polygon>
        <path d="M160.51,355.94h-30.42l2.82-9.66,25.28-.09,2.32,9.75Zm-29.08-1h27.82l-1.84-7.75-23.74,.08-2.23,7.66Z" fill="#002346"></path>
      </g>
    </g>
    <g>
      <rect x="365.01" y="49.75" width="163" height="99" fill="#fbe493"></rect>
      <path d="M528.51,149.25h-164V49.25h164v100Zm-163-1h162V50.25h-162v98Z" fill="#002346"></path>
    </g>
    <g>
      <rect x="369.89" y="55.25" width="153.24" height="88" fill="#fff"></rect>
      <path d="M523.63,143.75h-154.24V54.75h154.24v89Zm-153.24-1h152.24V55.75h-152.24v87Z" fill="#002346"></path>
    </g>
    <g>
      <g>
        <g>
          <rect x="388.51" y="102.88" width="116" height="14" fill="#fff"></rect>
          <path d="M505.01,117.38h-117v-15h117v15Zm-116-1h115v-13h-115v13Z" fill="#002346"></path>
        </g>
        <g>
          <polygon points="405.48 102.88 400.93 116.88 392.51 116.88 397.07 102.88 405.48 102.88" fill="#F5814F"></polygon>
          <path d="M401.3,117.38h-9.47l4.89-15h9.46l-4.88,15Zm-8.09-1h7.37l4.23-13h-7.36l-4.24,13Z" fill="#002346"></path>
        </g>
        <g>
          <polygon points="419.81 102.88 415.25 116.88 406.84 116.88 411.39 102.88 419.81 102.88" fill="#F5814F"></polygon>
          <path d="M415.62,117.38h-9.46l4.88-15h9.47l-4.88,15Zm-8.08-1h7.36l4.23-13h-7.37l-4.22,13Z" fill="#002346"></path>
        </g>
        <g>
          <polygon points="434.14 102.88 429.58 116.88 421.16 116.88 425.72 102.88 434.14 102.88" fill="#F5814F"></polygon>
          <path d="M429.95,117.38h-9.47l4.88-15h9.47l-4.88,15Zm-8.09-1h7.37l4.23-13h-7.37l-4.23,13Z" fill="#002346"></path>
        </g>
        <g>
          <polygon points="448.48 102.88 443.93 116.88 435.51 116.88 440.07 102.88 448.48 102.88" fill="#F5814F"></polygon>
          <path d="M444.3,117.38h-9.47l4.89-15h9.46l-4.88,15Zm-8.09-1h7.37l4.23-13h-7.36l-4.24,13Z" fill="#002346"></path>
        </g>
        <g>
          <polygon points="463.81 102.88 459.25 116.88 450.84 116.88 455.39 102.88 463.81 102.88" fill="#F5814F"></polygon>
          <path d="M459.62,117.38h-9.46l4.88-15h9.47l-4.88,15Zm-8.08-1h7.36l4.23-13h-7.37l-4.22,13Z" fill="#002346"></path>
        </g>
      </g>
      <g>
        <path d="M403.58,83.97c.51,.24,.9,.58,1.18,1.02,.28,.44,.42,.95,.42,1.52s-.14,1.06-.44,1.49c-.29,.43-.7,.76-1.22,1-.52,.24-1.13,.35-1.81,.35h-2.17c-.05,0-.08,.02-.08,.07v3.41s-.02,.08-.05,.11-.08,.05-.13,.05h-1.79c-.05,0-.09-.02-.13-.05s-.05-.07-.05-.11v-9.06s.02-.08,.05-.11,.08-.05,.13-.05h4.31c.67,0,1.26,.12,1.77,.36Zm-.96,3.51c.29-.24,.43-.55,.43-.93s-.14-.71-.43-.95-.66-.36-1.13-.36h-1.94c-.05,0-.08,.02-.08,.07v2.46s.03,.07,.08,.07h1.94c.47,0,.85-.12,1.13-.36Z" fill="#002346"></path>
        <path d="M412.16,92.87l-1.91-3.71s-.05-.05-.09-.05h-1.42c-.05,0-.08,.02-.08,.07v3.65s-.02,.08-.05,.11-.08,.05-.13,.05h-1.79c-.05,0-.09-.02-.13-.05s-.05-.07-.05-.11v-9.05s.02-.08,.05-.11,.08-.05,.13-.05h4.37c.65,0,1.22,.12,1.72,.35s.88,.56,1.14,.99,.41,.92,.41,1.49c0,.61-.17,1.13-.52,1.56-.35,.43-.83,.74-1.45,.92-.05,.02-.07,.05-.05,.09l2.08,3.79s.03,.06,.03,.08c0,.07-.05,.11-.17,.11h-1.88c-.1,0-.17-.04-.21-.12Zm-3.5-7.56v2.29s.03,.07,.08,.07h2c.43,0,.78-.11,1.05-.33s.4-.51,.4-.87-.13-.65-.4-.88c-.27-.23-.62-.34-1.05-.34h-2c-.05,0-.08,.02-.08,.07Z" fill="#002346"></path>
        <path d="M417.59,92.71c-.61-.29-1.08-.68-1.41-1.2-.33-.51-.5-1.1-.5-1.77v-2.86c0-.66,.17-1.25,.5-1.75,.34-.51,.81-.9,1.41-1.19,.61-.28,1.31-.42,2.1-.42s1.51,.14,2.12,.42c.61,.28,1.08,.68,1.41,1.19,.34,.51,.5,1.09,.5,1.75v2.86c0,.67-.17,1.26-.5,1.78s-.81,.92-1.41,1.2-1.31,.42-2.12,.42-1.49-.14-2.1-.43Zm3.46-1.66c.35-.31,.52-.73,.52-1.25v-2.94c0-.52-.17-.94-.51-1.25-.34-.32-.8-.47-1.37-.47s-1.01,.16-1.35,.47-.51,.73-.51,1.25v2.94c0,.52,.17,.93,.51,1.25,.34,.31,.79,.47,1.35,.47s1.01-.16,1.36-.47Z" fill="#002346"></path>
        <path d="M427.03,92.69c-.6-.27-1.06-.65-1.39-1.14-.33-.49-.49-1.06-.49-1.7v-3.09c0-.64,.16-1.21,.49-1.7,.33-.49,.79-.87,1.39-1.14s1.3-.4,2.09-.4,1.47,.13,2.07,.38c.6,.25,1.06,.62,1.39,1.08,.33,.47,.5,1.01,.5,1.63,0,.08-.06,.13-.18,.15l-1.79,.09h-.03c-.1,0-.15-.05-.15-.15,0-.47-.17-.85-.5-1.14s-.77-.43-1.31-.43-.99,.14-1.32,.43c-.33,.29-.5,.66-.5,1.14v3.23c0,.46,.17,.84,.5,1.12,.33,.29,.77,.43,1.32,.43s.97-.14,1.31-.43c.33-.29,.5-.66,.5-1.12,0-.1,.06-.15,.18-.15l1.79,.07c.05,0,.09,.01,.13,.04,.04,.03,.05,.06,.05,.09,0,.62-.17,1.16-.5,1.63-.33,.47-.79,.84-1.39,1.1-.59,.26-1.29,.39-2.07,.39s-1.49-.14-2.09-.41Z" fill="#002346"></path>
        <path d="M442.02,85.2s-.08,.05-.13,.05h-5.01c-.05,0-.08,.02-.08,.07v2.07s.03,.07,.08,.07h3.28c.05,0,.09,.02,.13,.05,.04,.03,.05,.07,.05,.11v1.3s-.02,.08-.05,.11c-.04,.03-.08,.05-.13,.05h-3.28c-.05,0-.08,.02-.08,.07v2.17s.03,.07,.08,.07h5.01c.05,0,.09,.02,.13,.05s.05,.07,.05,.11v1.3s-.02,.08-.05,.11-.08,.05-.13,.05h-7.05c-.05,0-.09-.02-.13-.05-.04-.03-.05-.07-.05-.11v-9.05s.02-.08,.05-.11c.04-.03,.08-.05,.13-.05h7.05c.05,0,.09,.02,.13,.05s.05,.07,.05,.11v1.3s-.02,.08-.05,.11Z" fill="#002346"></path>
        <path d="M445.09,92.76c-.61-.23-1.08-.55-1.41-.98s-.5-.92-.5-1.48v-.29s.02-.08,.05-.11c.04-.03,.08-.05,.13-.05h1.74c.05,0,.09,.02,.13,.05,.04,.03,.05,.07,.05,.11v.2c0,.36,.19,.66,.57,.9,.38,.25,.89,.37,1.53,.37,.54,0,.94-.1,1.21-.3,.26-.2,.4-.45,.4-.74,0-.21-.08-.39-.24-.54-.16-.15-.38-.28-.67-.39-.28-.11-.72-.27-1.33-.46-.68-.21-1.26-.42-1.73-.63s-.87-.51-1.19-.88c-.32-.37-.48-.83-.48-1.37s.16-1,.47-1.4c.32-.4,.75-.71,1.31-.92,.56-.21,1.21-.32,1.94-.32,.77,0,1.46,.12,2.07,.36s1.08,.58,1.42,1.01c.34,.43,.51,.93,.51,1.51v.2s-.02,.08-.05,.11c-.04,.03-.08,.05-.13,.05h-1.75c-.05,0-.09-.02-.13-.05-.04-.03-.05-.07-.05-.11v-.11c0-.38-.18-.69-.53-.96-.35-.26-.83-.39-1.44-.39-.48,0-.85,.09-1.12,.27-.27,.18-.41,.42-.41,.74,0,.22,.08,.41,.24,.56s.39,.29,.7,.41,.79,.28,1.44,.49c.72,.23,1.29,.44,1.7,.62,.41,.18,.78,.44,1.11,.8s.5,.81,.5,1.37c0,.84-.35,1.5-1.05,1.99-.7,.49-1.66,.73-2.86,.73-.81,0-1.53-.11-2.14-.34Z" fill="#002346"></path>
        <path d="M454.18,92.76c-.61-.23-1.08-.55-1.41-.98s-.5-.92-.5-1.48v-.29s.02-.08,.05-.11c.04-.03,.08-.05,.13-.05h1.74c.05,0,.09,.02,.13,.05,.04,.03,.05,.07,.05,.11v.2c0,.36,.19,.66,.57,.9,.38,.25,.89,.37,1.53,.37,.54,0,.94-.1,1.21-.3,.26-.2,.4-.45,.4-.74,0-.21-.08-.39-.24-.54-.16-.15-.38-.28-.66-.39-.28-.11-.73-.27-1.34-.46-.68-.21-1.26-.42-1.73-.63s-.87-.51-1.19-.88c-.32-.37-.48-.83-.48-1.37s.16-1,.47-1.4c.32-.4,.75-.71,1.31-.92,.56-.21,1.21-.32,1.94-.32,.77,0,1.46,.12,2.07,.36s1.08,.58,1.42,1.01c.34,.43,.51,.93,.51,1.51v.2s-.02,.08-.05,.11c-.04,.03-.08,.05-.13,.05h-1.75c-.05,0-.09-.02-.13-.05-.04-.03-.05-.07-.05-.11v-.11c0-.38-.18-.69-.53-.96-.35-.26-.83-.39-1.44-.39-.48,0-.85,.09-1.12,.27-.27,.18-.4,.42-.4,.74,0,.22,.08,.41,.24,.56s.39,.29,.7,.41,.79,.28,1.44,.49c.72,.23,1.29,.44,1.7,.62,.41,.18,.78,.44,1.11,.8s.5,.81,.5,1.37c0,.84-.35,1.5-1.05,1.99-.7,.49-1.65,.73-2.86,.73-.81,0-1.53-.11-2.14-.34Z" fill="#002346"></path>
        <path d="M461.79,92.95s-.05-.07-.05-.11v-9.05s.02-.08,.05-.11c.04-.03,.08-.05,.13-.05h1.79c.05,0,.09,.02,.13,.05,.04,.03,.05,.07,.05,.11v9.05s-.02,.08-.05,.11c-.04,.03-.08,.05-.13,.05h-1.79c-.05,0-.09-.02-.13-.05Z" fill="#002346"></path>
        <path d="M471.94,83.67s.08-.05,.13-.05h1.79c.05,0,.09,.02,.13,.05,.04,.03,.05,.07,.05,.11v9.05s-.02,.08-.05,.11c-.04,.03-.08,.05-.13,.05h-1.72c-.1,0-.17-.04-.21-.11l-3.95-5.73s-.04-.04-.06-.03c-.02,0-.03,.03-.03,.06l.03,5.65s-.02,.08-.05,.11c-.04,.03-.08,.05-.13,.05h-1.79c-.05,0-.09-.02-.13-.05-.04-.03-.05-.07-.05-.11v-9.05s.02-.08,.05-.11c.04-.03,.08-.05,.13-.05h1.73c.1,0,.17,.04,.21,.11l3.94,5.7s.04,.04,.06,.03,.03-.02,.03-.06v-5.62s0-.08,.04-.11Z" fill="#002346"></path>
        <path d="M477.58,92.69c-.6-.28-1.07-.66-1.4-1.16-.33-.5-.5-1.07-.5-1.72v-3c0-.65,.17-1.23,.5-1.73,.33-.5,.8-.88,1.4-1.16s1.29-.41,2.08-.41,1.46,.13,2.05,.4c.59,.27,1.06,.63,1.39,1.09s.5,.97,.5,1.53v.09s-.02,.08-.05,.11c-.04,.03-.08,.05-.13,.05h-1.79c-.05,0-.09-.02-.13-.05-.04-.03-.05-.07-.05-.11v-.04c0-.41-.16-.76-.49-1.04-.33-.28-.76-.42-1.3-.42s-.99,.15-1.32,.45c-.33,.3-.5,.69-.5,1.17v3.11c0,.48,.18,.87,.53,1.17,.36,.3,.81,.45,1.36,.45s.95-.12,1.27-.37c.31-.25,.47-.59,.47-1.02v-.6s-.03-.07-.08-.07h-1.71c-.05,0-.09-.01-.13-.05-.04-.03-.05-.07-.05-.11v-1.23s.02-.08,.05-.11c.04-.03,.08-.05,.13-.05h3.73c.05,0,.09,.02,.13,.05,.04,.03,.05,.07,.05,.11v1.77c0,.68-.16,1.27-.49,1.77-.33,.5-.79,.88-1.38,1.14s-1.29,.39-2.07,.39-1.48-.14-2.08-.41Z" fill="#002346"></path>
        <path d="M485.39,92.75c-.23-.2-.34-.45-.34-.76s.11-.57,.34-.76c.22-.2,.51-.29,.87-.29s.65,.1,.87,.29c.22,.2,.34,.45,.34,.76s-.12,.56-.34,.76c-.23,.2-.52,.3-.86,.3s-.63-.1-.86-.3Z" fill="#002346"></path>
        <path d="M489.51,92.75c-.23-.2-.34-.45-.34-.76s.11-.57,.34-.76c.22-.2,.51-.29,.87-.29s.65,.1,.87,.29c.22,.2,.34,.45,.34,.76s-.12,.56-.34,.76c-.23,.2-.52,.3-.86,.3s-.63-.1-.86-.3Z" fill="#002346"></path>
        <path d="M493.64,92.75c-.23-.2-.34-.45-.34-.76s.11-.57,.34-.76c.22-.2,.51-.29,.87-.29s.65,.1,.87,.29c.22,.2,.34,.45,.34,.76s-.12,.56-.34,.76c-.23,.2-.52,.3-.86,.3s-.63-.1-.86-.3Z" fill="#002346"></path>
      </g>
    </g>
  </g>
  <path d="M818.38,633.25H47.38c-.28,0-.5-.22-.5-.5s.22-.5,.5-.5H818.38c.28,0,.5,.22,.5,.5s-.22,.5-.5,.5Z" fill="#002346"></path>
</svg>
