<svg width="248" height="226" viewBox="0 0 248 226" fill="none" xmlns="http://www.w3.org/2000/svg">
  <path d="M6.57787 94.4528C21.0923 68.782 35.7981 43.2089 50.1928 17.4648C53.0175 12.4186 55.3741 8.97843 57.2625 7.14441C62.1405 2.42915 68.2713 0.0633694 75.6548 0.0470912C108.173 -0.00174357 140.689 -0.0125965 173.202 0.0145339C179.607 0.0253861 185.2 2.15513 189.983 6.40375C194.77 10.6605 197.292 16.6102 200.404 22.0878C214.176 46.3641 227.945 70.6431 241.712 94.9249C244.856 100.47 246.729 104.602 247.33 107.321C249.205 115.761 247.003 121.735 242.494 129.654C227.435 156.09 212.431 182.556 197.483 209.052C194.781 213.843 192.467 217.161 190.541 219.006C185.679 223.656 179.697 225.984 172.596 225.989C140.157 226 107.71 226.003 75.2559 225.997C68.2447 225.992 62.3267 223.667 57.5019 219.022C55.5443 217.139 53.1266 213.648 50.2487 208.547C35.4284 182.263 20.5364 156.02 5.57248 129.817C1.03225 121.865 -1.60093 114.662 1.07215 105.579C2.18925 101.762 4.51123 98.1072 6.57787 94.4528ZM178.053 41.988C174.144 35.0535 166.898 29.9095 158.839 29.8526C149.062 29.7874 127.387 29.7847 93.8158 29.8444C85.8684 29.8607 80.4743 30.6421 74.9287 35.6395C72.9764 37.403 70.4124 41.0954 67.2367 46.7168C57.9062 63.2284 48.5837 79.7454 39.2691 96.2678C37.7956 98.8832 36.9551 100.818 36.7477 102.071C35.838 107.646 40.873 112.872 46.1314 112.872C66.8457 112.877 87.5627 112.88 108.282 112.88C115.639 112.88 120.714 113.848 125.877 118.488C127.802 120.219 130.398 123.96 133.665 129.711C142.814 145.805 151.911 161.929 160.954 178.082C163.451 182.534 165.247 185.888 169.795 186.539C173.838 187.114 176.963 185.502 179.171 181.704C189.791 163.424 199.893 144.85 210.705 126.7C214.391 120.514 215.514 114.266 214.072 107.956C213.466 105.297 211.21 100.53 207.306 93.6551C197.534 76.449 187.783 59.2267 178.053 41.988Z" fill="#F5814F"/>
  <path d="M158.839 29.8526C166.898 29.9096 174.144 35.0535 178.053 41.988C187.783 59.2267 197.534 76.4491 207.306 93.6552C211.21 100.53 213.466 105.297 214.072 107.956C215.514 114.266 214.391 120.514 210.705 126.7C199.893 144.85 189.791 163.424 179.171 181.704C176.963 185.502 173.838 187.114 169.795 186.539C165.247 185.888 163.451 182.534 160.954 178.082C151.911 161.929 142.814 145.805 133.665 129.711C130.398 123.96 127.802 120.219 125.877 118.488C120.714 113.848 115.639 112.88 108.282 112.88C87.5627 112.88 66.8457 112.877 46.1314 112.872C40.8731 112.872 35.8381 107.646 36.7477 102.071C36.9552 100.818 37.7957 98.8832 39.2692 96.2678C48.5837 79.7454 57.9062 63.2284 67.2367 46.7169C70.4125 41.0954 72.9765 37.403 74.9288 35.6395C80.4744 30.6421 85.8684 29.8607 93.8158 29.8445C127.387 29.7848 149.062 29.7875 158.839 29.8526Z" fill="white"/>
</svg>